<svg width="60" height="60" viewBox="0 0 60 60" fill="none" xmlns="http://www.w3.org/2000/svg">
<path d="M58.5922 17.5H51.5762L49.6262 11C47.6223 4.31719 42.8399 0 37.441 0H22.5582C17.1605 0 12.3769 4.31719 10.3719 11L8.42185 17.5H1.407C0.491762 17.5 -0.179723 18.6469 0.0429332 19.8297L0.746059 23.5797C0.901919 24.4141 1.46442 25 2.11012 25H4.46208C2.88825 26.8328 1.87458 29.4969 1.87458 32.5V40C1.87458 42.5188 2.59645 44.7922 3.74958 46.5516V55C3.74958 57.7609 5.42888 60 7.49958 60H11.2496C13.3203 60 14.9996 57.7609 14.9996 55V50H44.9996V55C44.9996 57.7609 46.6789 60 48.7496 60H52.4996C54.5704 60 56.2496 57.7609 56.2496 55V46.5516C57.4028 44.7937 58.1247 42.5203 58.1247 40V32.5C58.1247 29.4969 57.111 26.8328 55.5383 25H57.8903C58.536 25 59.0985 24.4141 59.2543 23.5797L59.9575 19.8297C60.179 18.6469 59.5075 17.5 58.5922 17.5ZM17.3351 14.7141C18.1894 11.8672 20.2578 10 22.5582 10H37.441C39.7414 10 41.8098 11.8672 42.6641 14.7141L44.9996 22.5H14.9996L17.3351 14.7141ZM11.2496 39.9687C8.99959 39.9687 7.49958 37.975 7.49958 34.9844C7.49958 31.9937 8.99959 30 11.2496 30C13.4996 30 16.8746 34.4859 16.8746 37.4766C16.8746 40.4672 13.4996 39.9687 11.2496 39.9687ZM48.7496 39.9687C46.4996 39.9687 43.1246 40.4672 43.1246 37.4766C43.1246 34.4859 46.4996 30 48.7496 30C50.9996 30 52.4996 31.9937 52.4996 34.9844C52.4996 37.975 50.9996 39.9687 48.7496 39.9687Z" fill="#F6C90E"/>
</svg>
