<svg width="50" height="50" viewBox="0 0 50 50" fill="none" xmlns="http://www.w3.org/2000/svg">
<circle cx="25" cy="25" r="25" fill="#FFAF1E"/>
<path d="M26.4126 24.4348C26.6698 24.4115 26.8557 24.2187 26.8277 24.0043C26.7998 23.7897 26.5691 23.6357 26.3109 23.6581C23.2673 23.9329 21.82 22.9987 21.1426 22.1658C20.1959 21.0017 20.1748 19.3214 21.089 17.8849C21.9997 16.4542 23.5996 15.6339 25.4791 15.6339H25.4805C26.9124 15.6339 28.1969 16.1206 28.9165 16.9356C29.6672 17.7857 29.7899 18.9673 29.2717 20.353C29.0685 20.8968 28.4052 21.6102 27.8215 21.7507C27.5835 21.8087 27.3953 21.7873 27.2479 21.6857C27.0781 21.568 27.0172 21.3853 27.0223 21.313C27.0232 21.3084 27.0236 21.3042 27.0241 21.2996L27.5377 17.0199C27.5652 16.8053 27.3789 16.6129 27.1216 16.5902C26.8598 16.5663 26.6332 16.7225 26.6057 16.9371L26.5603 17.292C26.5521 17.287 26.5453 17.2808 26.537 17.2759C25.9364 16.9159 25.0948 16.8809 24.2848 17.1822C22.9056 17.6945 21.9097 19.3229 22.1535 20.6666C22.3363 21.6744 23.1889 22.3271 24.4933 22.4574C25.0921 22.5167 25.827 22.3695 26.3722 22.0336C26.4514 22.1284 26.5448 22.2146 26.6491 22.2868C27.0355 22.5539 27.5441 22.6304 28.0819 22.5012C29.0236 22.2742 29.8814 21.3488 30.167 20.5853C30.9379 18.523 30.3231 17.2104 29.6717 16.4727C28.7759 15.4581 27.209 14.8525 25.4805 14.8525H25.4791C23.2413 14.8525 21.3393 15.8243 20.2608 17.5186C19.186 19.2074 19.2274 21.2034 20.3666 22.604C21.3666 23.8335 23.0962 24.4864 25.304 24.4864C25.6614 24.4864 26.0312 24.4693 26.4126 24.4348ZM26.3654 18.8346L26.0986 21.1555C25.8262 21.5284 25.1116 21.7315 24.6044 21.6817C23.7134 21.5927 23.2007 21.212 23.0805 20.5499C22.9001 19.5556 23.6708 18.2656 24.6667 17.8956C24.9075 17.8062 25.151 17.7615 25.3748 17.7615C25.6105 17.7615 25.8248 17.8113 25.9896 17.9101C26.2848 18.0869 26.4144 18.4066 26.3654 18.8346Z" fill="white"/>
<path d="M37.7995 20.4583L34.3946 18.7012V12.7812C34.3946 12.5655 34.185 12.3906 33.9259 12.3906H15.8486C15.5898 12.3906 15.3798 12.5655 15.3798 12.7812V18.6468C13.7526 19.5017 12.6583 20.1252 12.1377 20.4963C11.4227 21.0057 11.0291 21.7319 11.0291 22.5406V33.8784C11.029 35.3843 12.4991 36.6094 14.3059 36.6094H35.6942C36.5772 36.6094 37.3782 36.3155 37.968 35.8405C37.9691 35.8396 37.9706 35.8393 37.9716 35.8384C37.9721 35.838 37.9722 35.8374 37.9727 35.8369C38.5871 35.3402 38.9709 34.6465 38.9709 33.8784V22.5406C38.9709 21.8591 38.6642 20.9048 37.7995 20.4583ZM34.3946 19.62L36.7662 20.8439L34.3946 22.5677V19.62ZM37.555 21.307C37.8814 21.6194 38.0334 22.1184 38.0334 22.5406V33.8784C38.0334 34.2982 37.8698 34.685 37.5979 35.0036L28.5583 27.8463L37.555 21.307ZM16.3173 13.1719H33.4571V23.2488L24.999 29.3969L16.3173 23.0893L16.3173 13.1719ZM15.3798 19.5719V22.4088L13.1777 20.809C13.6726 20.5029 14.4162 20.085 15.3798 19.5719ZM11.9665 33.8784V22.5406C11.9665 22.0747 12.1444 21.6654 12.4719 21.3329L21.7772 28.0929L12.71 35.2959C12.2551 34.94 11.9665 34.4382 11.9665 33.8784ZM14.3059 35.8281C14.0376 35.8281 13.7838 35.7825 13.5436 35.7129L22.4868 28.6084L24.6909 30.2097C24.7793 30.2738 24.8891 30.3058 24.999 30.3058C25.1088 30.3058 25.2189 30.2738 25.307 30.2095L27.8487 28.3621L36.9096 35.5362C36.5544 35.7179 36.1408 35.8281 35.6943 35.8281H14.3059Z" fill="white"/>
</svg>
