<svg width="40" height="40" viewBox="0 0 40 40" fill="none" xmlns="http://www.w3.org/2000/svg">
<circle cx="20" cy="20" r="20" fill="white"/>
<path d="M19.9105 10.8016C22.8772 10.8016 23.2284 10.8124 24.4 10.8665C25.483 10.9157 26.0713 11.0967 26.4628 11.2492C26.9812 11.4508 27.351 11.6908 27.7406 12.0804C28.1291 12.4689 28.3701 12.8388 28.5718 13.3572C28.7242 13.7487 28.9052 14.3369 28.9544 15.42C29.0075 16.5915 29.0193 16.9427 29.0193 19.9095C29.0193 22.8763 29.0075 23.2274 28.9544 24.399C28.9052 25.482 28.7242 26.0703 28.5718 26.4618C28.3701 26.9802 28.1301 27.35 27.7406 27.7396C27.352 28.1281 26.9821 28.3691 26.4628 28.5708C26.0713 28.7233 25.483 28.9043 24.4 28.9534C23.2284 29.0066 22.8772 29.0184 19.9105 29.0184C16.9437 29.0184 16.5925 29.0066 15.421 28.9534C14.3379 28.9043 13.7497 28.7233 13.3582 28.5708C12.8398 28.3691 12.4699 28.1281 12.0804 27.7396C11.6918 27.351 11.4508 26.9812 11.2492 26.4618C11.0977 26.0703 10.9157 25.482 10.8665 24.399C10.8134 23.2274 10.8016 22.8763 10.8016 19.9095C10.8016 16.9427 10.8124 16.5915 10.8665 15.42C10.9157 14.3369 11.0977 13.7487 11.2492 13.3572C11.4508 12.8388 11.6918 12.4689 12.0804 12.0804C12.4689 11.6918 12.8388 11.4508 13.3582 11.2492C13.7497 11.0967 14.3379 10.9157 15.421 10.8665C16.5925 10.8124 16.9437 10.8016 19.9105 10.8016ZM19.9105 8.7998C16.8935 8.7998 16.5148 8.8126 15.3295 8.8667C14.1471 8.92081 13.3395 9.10868 12.6322 9.38313C11.9013 9.66741 11.2816 10.0471 10.6639 10.6649C10.0461 11.2826 9.66642 11.9023 9.38312 12.6332C9.10867 13.3395 8.92079 14.1471 8.86669 15.3305C8.81259 16.5158 8.7998 16.8935 8.7998 19.9115C8.7998 22.9294 8.81259 23.3071 8.86669 24.4925C8.92079 25.6748 9.10867 26.4824 9.38312 27.1897C9.66642 27.9206 10.0461 28.5393 10.6639 29.158C11.2816 29.7758 11.9013 30.1555 12.6322 30.4398C13.3385 30.7142 14.1461 30.9021 15.3295 30.9562C16.5148 31.0103 16.8925 31.0231 19.9105 31.0231C22.9274 31.0231 23.3061 31.0103 24.4915 30.9562C25.6738 30.9021 26.4814 30.7142 27.1887 30.4398C27.9196 30.1555 28.5393 29.7758 29.1571 29.158C29.7748 28.5403 30.1545 27.9206 30.4388 27.1897C30.7132 26.4834 30.9011 25.6758 30.9552 24.4925C31.0093 23.3071 31.0221 22.9294 31.0221 19.9115C31.0221 16.8935 31.0093 16.5158 30.9552 15.3305C30.9011 14.1481 30.7132 13.3405 30.4388 12.6332C30.1545 11.9023 29.7748 11.2826 29.1571 10.6649C28.5393 10.0471 27.9196 9.66741 27.1887 9.38313C26.4824 9.10868 25.6748 8.92081 24.4915 8.8667C23.3061 8.8126 22.9274 8.7998 19.9105 8.7998Z" fill="#FFAF1E"/>
<path d="M19.9104 14.2061C16.7597 14.2061 14.2051 16.7607 14.2051 19.9114C14.2051 23.0621 16.7597 25.6167 19.9104 25.6167C23.0612 25.6167 25.6158 23.0621 25.6158 19.9114C25.6158 16.7607 23.0612 14.2061 19.9104 14.2061ZM19.9104 23.614C17.8654 23.614 16.2069 21.9555 16.2069 19.9104C16.2069 17.8654 17.8654 16.2069 19.9104 16.2069C21.9555 16.2069 23.614 17.8654 23.614 19.9104C23.614 21.9555 21.9555 23.614 19.9104 23.614Z" fill="#FFAF1E"/>
<path d="M27.1741 13.9794C27.1741 14.7152 26.577 15.3122 25.8412 15.3122C25.1044 15.3122 24.5083 14.7152 24.5083 13.9794C24.5083 13.2436 25.1054 12.6465 25.8412 12.6465C26.578 12.6465 27.1741 13.2436 27.1741 13.9794Z" fill="#FFAF1E"/>
</svg>
