<svg width="55" height="55" viewBox="0 0 55 55" fill="none" xmlns="http://www.w3.org/2000/svg">
<path d="M34.1838 47.6855C33.3706 47.6855 32.6055 47.0962 32.6055 46.3693C32.6055 45.6423 33.4226 45.0531 34.2358 45.0531C37.2726 45.0531 40.1954 42.8003 40.1954 40.3266V20.6875C40.1954 17.9718 36.3651 14.6334 33.5906 14.6334H21.754C18.896 14.6334 16.6234 18.0437 16.6234 20.6875V40.3266C16.6234 42.8889 18.896 45.0531 21.8345 45.0531C22.6477 45.0531 23.2026 45.6423 23.2026 46.3693C23.2026 47.0962 22.6998 47.6855 21.8866 47.6855C17.2735 47.6855 13.677 44.384 13.677 40.3266V20.6875C13.677 16.7529 17.0477 12.001 21.754 12.001H33.5896C38.0278 12.001 43.1408 16.4661 43.1408 20.6875V40.3266C43.1408 44.2463 38.843 47.6855 34.1838 47.6855Z" fill="#F6C906"/>
<path d="M31.0518 39.8198C30.2386 39.8198 29.4746 39.2305 29.4746 38.5036C29.4746 37.7766 30.2917 37.1873 31.1049 37.1873C32.5191 37.1873 33.3206 36.1044 33.3206 35.0986V24.033C33.3206 23.0763 32.4327 21.6539 31.1393 21.6539H24.4706C23.2518 21.6539 22.5172 22.8097 22.5172 24.033V35.0986C22.5172 36.2499 23.3638 37.1873 24.6631 37.1873C25.4763 37.1873 26.0312 37.7766 26.0312 38.5036C26.0312 39.2305 25.5284 39.8198 24.7152 39.8198C21.7914 39.8198 19.5708 37.7021 19.5708 35.0986V24.033C19.5708 21.3637 21.6372 19.0215 24.4706 19.0215H31.1393C33.8676 19.0215 36.2669 21.1296 36.2669 24.033V35.0986C36.2659 37.7898 33.9049 39.8198 31.0518 39.8198Z" fill="#F6C906"/>
<path d="M34.3018 50.0427C34.3018 52.7804 31.818 54.9998 28.7538 54.9998H27.0832C24.019 54.9998 21.5342 52.7804 21.5342 50.0427V45.0391C21.5342 42.3015 24.019 40.082 27.0832 40.082H28.7538C31.818 40.082 34.3018 42.3015 34.3018 45.0391V50.0427ZM31.3554 45.0391C31.3554 43.7554 30.1906 42.7145 28.7538 42.7145H27.0832C25.6454 42.7145 24.4806 43.7554 24.4806 45.0391V50.0427C24.4806 51.3265 25.6454 52.3674 27.0832 52.3674H28.7538C30.1906 52.3674 31.3554 51.3265 31.3554 50.0427V45.0391Z" fill="#F6C906"/>
<path d="M27.2756 15.0037C22.6458 15.0037 18.8794 11.6382 18.8794 7.50187C18.8794 3.36554 22.6458 0 27.2756 0C31.9043 0 35.6708 3.36554 35.6708 7.50187C35.6708 11.6382 31.9043 15.0037 27.2756 15.0037ZM27.2756 2.63333C24.2713 2.63333 21.8258 4.81768 21.8258 7.50187C21.8258 10.1869 24.2713 12.3713 27.2756 12.3713C30.2809 12.3713 32.7244 10.1869 32.7244 7.50187C32.7254 4.81768 30.2819 2.63333 27.2756 2.63333Z" fill="#F6C906"/>
<path d="M29.444 7.50162C29.444 8.57144 28.4727 9.43869 27.2764 9.43869C26.0792 9.43869 25.1089 8.57144 25.1089 7.50162C25.1089 6.43181 26.0792 5.56543 27.2764 5.56543C28.4717 5.56543 29.444 6.43181 29.444 7.50162Z" fill="#F6C906"/>
<path d="M27.2757 15.066C24.9412 15.066 22.8434 14.2663 21.3397 12.879H8.83923C8.02603 12.879 7.78442 12.2897 7.78442 11.5628V6.68986C7.78442 6.08393 8.03781 5.55603 8.69682 5.41135L19.893 2.92446C20.171 2.86308 20.3988 2.87798 20.6542 2.9534C22.2138 1.12857 24.6367 0 27.2914 0C29.9451 0 32.3857 1.11366 33.9561 2.97093L45.7318 5.40871C46.3967 5.54902 47.0694 6.07954 47.0694 6.68986V11.5628C47.0694 12.2897 45.9911 12.879 45.1779 12.879H33.2843C31.7434 14.2707 29.6082 15.066 27.2757 15.066ZM21.0264 8.7611C21.6069 8.7611 22.1559 9.07065 22.3896 9.57749C23.2107 11.3655 25.0384 12.4336 27.2757 12.4336C29.2596 12.4336 31.0137 11.5689 31.9683 10.122C32.3091 9.60555 32.9956 9.36002 33.6418 9.524C34.0681 9.63274 34.4049 9.90282 34.5798 10.2466H44.1231V7.73162L34.3981 5.72703C34.2645 5.8042 34.0121 5.86383 33.852 5.90066C33.1871 6.05324 32.4466 5.77789 32.1294 5.2386C31.1816 3.63212 29.3126 2.63333 27.2914 2.63333C24.9913 2.63333 22.917 3.93991 22.149 5.88487C21.9477 6.39523 21.4114 6.74336 20.8064 6.76265C20.1985 6.78282 19.6426 6.46889 19.4 5.97344L19.4973 5.74632L10.7308 7.7211V10.2466H19.565C19.4786 9.65291 19.8567 9.06451 20.5079 8.84616C20.6778 8.78828 20.8536 8.7611 21.0264 8.7611Z" fill="#F6C906"/>
<path d="M53.5267 9.36878H49.5982C48.785 9.36878 48.125 8.7795 48.125 8.05255C48.125 7.3256 48.785 6.73633 49.5982 6.73633H53.5267C54.3399 6.73633 54.9999 7.3256 54.9999 8.05255C54.9999 8.7795 54.3389 9.36878 53.5267 9.36878Z" fill="#F6C906"/>
<path d="M5.40169 9.36878H1.47319C0.659988 9.36878 0 8.7795 0 8.05255C0 7.3256 0.659988 6.73633 1.47319 6.73633H5.40169C6.21489 6.73633 6.87488 7.3256 6.87488 8.05255C6.87488 8.7795 6.21489 9.36878 5.40169 9.36878Z" fill="#F6C906"/>
</svg>
