<svg width="53" height="71" viewBox="0 0 53 71" fill="none" xmlns="http://www.w3.org/2000/svg">
<path d="M30.4027 49.1894C29.9887 49.1894 29.5992 48.8534 29.5992 48.4389C29.5992 48.0244 30.0152 47.6884 30.4292 47.6884C31.9752 47.6884 33.4631 46.404 33.4631 44.9935V33.7957C33.4631 32.2472 31.5132 30.3437 30.1007 30.3437H24.0748C22.6198 30.3437 21.4629 32.2882 21.4629 33.7957V44.9935C21.4629 46.4545 22.6198 47.6884 24.1158 47.6884C24.5298 47.6884 24.8123 48.0244 24.8123 48.4389C24.8123 48.8534 24.5563 49.1894 24.1423 49.1894C21.7939 49.1894 19.9629 47.3069 19.9629 44.9935V33.7957C19.9629 31.5522 21.6789 28.8428 24.0748 28.8428H30.1002C32.3597 28.8428 34.9626 31.3887 34.9626 33.7957V44.9935C34.9626 47.2284 32.7747 49.1894 30.4027 49.1894Z" fill="#F6C906"/>
<path d="M28.8083 44.7045C28.3943 44.7045 28.0053 44.3685 28.0053 43.954C28.0053 43.5395 28.4213 43.2035 28.8353 43.2035C29.5553 43.2035 29.9633 42.586 29.9633 42.0125V35.7032C29.9633 35.1577 29.5113 34.3467 28.8528 34.3467H25.4578C24.8373 34.3467 24.4634 35.0057 24.4634 35.7032V42.0125C24.4634 42.669 24.8943 43.2035 25.5558 43.2035C25.9698 43.2035 26.2523 43.5395 26.2523 43.954C26.2523 44.3685 25.9963 44.7045 25.5823 44.7045C24.0939 44.7045 22.9634 43.497 22.9634 42.0125V35.7032C22.9634 34.1812 24.0154 32.8457 25.4578 32.8457H28.8528C30.2417 32.8457 31.4632 34.0477 31.4632 35.7032V42.0125C31.4627 43.547 30.2607 44.7045 28.8083 44.7045Z" fill="#F6C906"/>
<path d="M30.4628 50.5334C30.4628 52.0944 29.1983 53.3599 27.6383 53.3599H26.7878C25.2279 53.3599 23.9629 52.0944 23.9629 50.5334V47.6805C23.9629 46.1195 25.2279 44.854 26.7878 44.854H27.6383C29.1983 44.854 30.4628 46.1195 30.4628 47.6805V50.5334ZM28.9628 47.6805C28.9628 46.9485 28.3698 46.355 27.6383 46.355H26.7878C26.0559 46.355 25.4629 46.9485 25.4629 47.6805V50.5334C25.4629 51.2654 26.0559 51.8589 26.7878 51.8589H27.6383C28.3698 51.8589 28.9628 51.2654 28.9628 50.5334V47.6805Z" fill="#F6C906"/>
<path d="M26.8858 30.5548C24.5288 30.5548 22.6113 28.6359 22.6113 26.2774C22.6113 23.919 24.5288 22 26.8858 22C29.2422 22 31.1597 23.919 31.1597 26.2774C31.1597 28.6359 29.2422 30.5548 26.8858 30.5548ZM26.8858 23.5015C25.3563 23.5015 24.1113 24.747 24.1113 26.2774C24.1113 27.8084 25.3563 29.0539 26.8858 29.0539C28.4157 29.0539 29.6597 27.8084 29.6597 26.2774C29.6602 24.747 28.4162 23.5015 26.8858 23.5015Z" fill="#F6C906"/>
<path d="M27.9897 26.2773C27.9897 26.8873 27.4952 27.3818 26.8862 27.3818C26.2767 27.3818 25.7827 26.8873 25.7827 26.2773C25.7827 25.6673 26.2767 25.1733 26.8862 25.1733C27.4947 25.1733 27.9897 25.6673 27.9897 26.2773Z" fill="#F6C906"/>
<path d="M26.8857 30.5903C25.6972 30.5903 24.6293 30.1344 23.8638 29.3434H17.4999C17.0859 29.3434 16.9629 29.0074 16.9629 28.5929V25.8144C16.9629 25.4689 17.0919 25.1679 17.4274 25.0854L23.1273 23.6675C23.2688 23.6325 23.3848 23.641 23.5148 23.684C24.3088 22.6435 25.5422 22 26.8937 22C28.2447 22 29.4872 22.635 30.2867 23.694L36.2815 25.0839C36.62 25.1639 36.9625 25.4664 36.9625 25.8144V28.5929C36.9625 29.0074 36.4135 29.3434 35.9996 29.3434H29.9447C29.1602 30.1369 28.0732 30.5903 26.8857 30.5903ZM23.7043 26.9954C23.9998 26.9954 24.2793 27.1719 24.3983 27.4609C24.8163 28.4804 25.7467 29.0894 26.8857 29.0894C27.8957 29.0894 28.7887 28.5964 29.2747 27.7714C29.4482 27.4769 29.7977 27.3369 30.1267 27.4304C30.3437 27.4924 30.5151 27.6464 30.6041 27.8424H35.4626V26.4084L30.5116 25.2654C30.4437 25.3094 30.3152 25.3434 30.2337 25.3644C29.8952 25.4514 29.5182 25.2944 29.3567 24.9869C28.8742 24.071 27.9227 23.5015 26.8937 23.5015C25.7227 23.5015 24.6668 24.2465 24.2758 25.3554C24.1733 25.6464 23.9003 25.8449 23.5923 25.8559C23.2828 25.8674 22.9998 25.6884 22.8763 25.4059L22.9258 25.2764L18.4629 26.4024V27.8424H22.9603C22.9163 27.5039 23.1088 27.1684 23.4403 27.0439C23.5268 27.0109 23.6163 26.9954 23.7043 26.9954Z" fill="#F6C906"/>
<path d="M40.25 27.3418H38.25C37.836 27.3418 37.5 27.0058 37.5 26.5913C37.5 26.1768 37.836 25.8408 38.25 25.8408H40.25C40.6639 25.8408 40.9999 26.1768 40.9999 26.5913C40.9999 27.0058 40.6634 27.3418 40.25 27.3418Z" fill="#F6C906"/>
<path d="M15.75 27.3418H13.75C13.336 27.3418 13 27.0058 13 26.5913C13 26.1768 13.336 25.8408 13.75 25.8408H15.75C16.1639 25.8408 16.4999 26.1768 16.4999 26.5913C16.4999 27.0058 16.1639 27.3418 15.75 27.3418Z" fill="#F6C906"/>
<path d="M16.8341 10.1312C12.2094 13.2236 6.7067 15.948 1.65494 16.8377V35.1859C1.65494 42.9505 4.22691 50.1522 8.5758 56.0115C12.9957 61.9666 19.2486 66.5381 26.5 68.9092C33.7517 66.5381 40.0045 61.9666 44.4244 56.0115C48.773 50.1525 51.3451 42.9505 51.3451 35.1859V16.8377C42.6998 15.3144 32.6627 8.54145 26.5 2.03387C23.6717 5.01972 20.3472 7.78193 16.8341 10.1312ZM2.46602e-05 35.186V16.1442C2.46602e-05 15.7272 0.299572 15.3763 0.714279 15.3159C7.65483 14.32 15.7076 9.45171 21.2553 4.72573C22.9441 3.28696 24.4881 1.79721 25.899 0.255508C26.2799 -0.0984426 26.8035 -0.0743359 27.111 0.263977C31.887 5.51052 38.6234 10.3829 45.0735 13.1573C47.6803 14.2787 50.1122 15.0025 52.2341 15.3084C52.6623 15.3398 53 15.6974 53 16.1336V35.186C53 43.314 50.3054 50.8559 45.7496 56.994C41.0932 63.2679 34.4882 68.0732 26.8274 70.5355C26.5919 70.637 26.4158 70.614 26.1926 70.5422C10.8809 65.6219 2.46602e-05 51.4926 2.46602e-05 35.186Z" fill="#F6C906"/>
<path d="M18.6409 14.7451C14.8524 17.2786 10.374 19.4981 6.23639 20.2556V35.2064C6.23639 41.5529 8.33859 47.4393 11.8928 52.2279C15.4968 57.0837 20.5912 60.8146 26.5 62.7572C32.4087 60.8148 37.5034 57.0839 41.1074 52.2279C44.6616 47.4394 46.7638 41.5529 46.7638 35.2064V20.2556C39.6932 18.9617 31.5549 13.4796 26.5001 8.18419C24.1926 10.6014 21.4941 12.8374 18.6409 14.7451ZM11.1827 16.9733C16.0383 14.8851 22.3782 10.5086 25.8556 6.45452C26.205 6.04715 26.7782 6.05106 27.1113 6.41608C31.0347 10.7173 36.523 14.6962 41.8174 16.9733C43.9429 17.8876 45.9246 18.4787 47.6522 18.7289C48.0806 18.76 48.4187 19.1177 48.4187 19.5541V35.2064C48.4187 41.9163 46.194 48.1428 42.4327 53.2105C38.592 58.3852 33.1451 62.3495 26.8274 64.3833C26.6506 64.4595 26.4465 64.4746 26.2486 64.4116C13.5899 60.3724 4.58154 48.6814 4.58154 35.2064V19.5541C4.58122 18.9806 5.14741 18.705 5.2958 18.7364C7.03558 18.4906 9.03575 17.8969 11.1827 16.9733Z" fill="#F6C906"/>
</svg>
