<svg width="55" height="55" viewBox="0 0 55 55" fill="none" xmlns="http://www.w3.org/2000/svg">
<path d="M34.184 47.6855C33.3708 47.6855 32.6057 47.0962 32.6057 46.3693C32.6057 45.6423 33.4229 45.0531 34.2361 45.0531C37.2728 45.0531 40.1956 42.8003 40.1956 40.3266V20.6875C40.1956 17.9718 36.3653 14.6334 33.5908 14.6334H21.7542C18.8963 14.6334 16.6236 18.0437 16.6236 20.6875V40.3266C16.6236 42.8889 18.8963 45.0531 21.8348 45.0531C22.648 45.0531 23.2029 45.6423 23.2029 46.3693C23.2029 47.0962 22.7 47.6855 21.8868 47.6855C17.2738 47.6855 13.6772 44.384 13.6772 40.3266V20.6875C13.6772 16.7529 17.0479 12.001 21.7542 12.001H33.5898C38.0281 12.001 43.141 16.4661 43.141 20.6875V40.3266C43.141 44.2463 38.8432 47.6855 34.184 47.6855Z" fill="#F6C906"/>
<path d="M31.0518 39.8198C30.2386 39.8198 29.4746 39.2305 29.4746 38.5036C29.4746 37.7766 30.2917 37.1873 31.1049 37.1873C32.5191 37.1873 33.3206 36.1044 33.3206 35.0986V24.033C33.3206 23.0763 32.4327 21.6539 31.1393 21.6539H24.4706C23.2518 21.6539 22.5172 22.8097 22.5172 24.033V35.0986C22.5172 36.2499 23.3638 37.1873 24.6631 37.1873C25.4763 37.1873 26.0312 37.7766 26.0312 38.5036C26.0312 39.2305 25.5284 39.8198 24.7152 39.8198C21.7914 39.8198 19.5708 37.7021 19.5708 35.0986V24.033C19.5708 21.3637 21.6372 19.0215 24.4706 19.0215H31.1393C33.8676 19.0215 36.2669 21.1296 36.2669 24.033V35.0986C36.2659 37.7898 33.9049 39.8198 31.0518 39.8198Z" fill="#F6C906"/>
<path d="M34.3018 50.0427C34.3018 52.7804 31.818 54.9998 28.7538 54.9998H27.0832C24.019 54.9998 21.5342 52.7804 21.5342 50.0427V45.0391C21.5342 42.3015 24.019 40.082 27.0832 40.082H28.7538C31.818 40.082 34.3018 42.3015 34.3018 45.0391V50.0427ZM31.3554 45.0391C31.3554 43.7554 30.1906 42.7145 28.7538 42.7145H27.0832C25.6454 42.7145 24.4806 43.7554 24.4806 45.0391V50.0427C24.4806 51.3265 25.6454 52.3674 27.0832 52.3674H28.7538C30.1906 52.3674 31.3554 51.3265 31.3554 50.0427V45.0391Z" fill="#F6C906"/>
<path d="M27.2756 15.0037C22.6458 15.0037 18.8794 11.6382 18.8794 7.50187C18.8794 3.36554 22.6458 0 27.2756 0C31.9043 0 35.6708 3.36554 35.6708 7.50187C35.6708 11.6382 31.9043 15.0037 27.2756 15.0037ZM27.2756 2.63333C24.2713 2.63333 21.8258 4.81768 21.8258 7.50187C21.8258 10.1869 24.2713 12.3713 27.2756 12.3713C30.2809 12.3713 32.7244 10.1869 32.7244 7.50187C32.7254 4.81768 30.2819 2.63333 27.2756 2.63333Z" fill="#F6C906"/>
<path d="M29.444 7.50162C29.444 8.57144 28.4727 9.43869 27.2764 9.43869C26.0792 9.43869 25.1089 8.57144 25.1089 7.50162C25.1089 6.43181 26.0792 5.56543 27.2764 5.56543C28.4717 5.56543 29.444 6.43181 29.444 7.50162Z" fill="#F6C906"/>
<path d="M27.2754 15.066C24.9409 15.066 22.8431 14.2663 21.3395 12.879H8.83898C8.02578 12.879 7.78418 12.2897 7.78418 11.5628V6.68986C7.78418 6.08393 8.03757 5.55603 8.69657 5.41135L19.8928 2.92446C20.1707 2.86308 20.3986 2.87798 20.6539 2.9534C22.2136 1.12857 24.6365 0 27.2912 0C29.9449 0 32.3854 1.11366 33.9559 2.97093L45.7315 5.40871C46.3964 5.54902 47.0692 6.07954 47.0692 6.68986V11.5628C47.0692 12.2897 45.9908 12.879 45.1776 12.879H33.2841C31.7431 14.2707 29.608 15.066 27.2754 15.066ZM21.0262 8.7611C21.6066 8.7611 22.1556 9.07065 22.3894 9.57749C23.2104 11.3655 25.0382 12.4336 27.2754 12.4336C29.2593 12.4336 31.0134 11.5689 31.968 10.122C32.3088 9.60555 32.9953 9.36002 33.6416 9.524C34.0678 9.63274 34.4047 9.90282 34.5795 10.2466H44.1228V7.73162L34.3978 5.72703C34.2642 5.8042 34.0118 5.86383 33.8518 5.90066C33.1869 6.05324 32.4463 5.77789 32.1291 5.2386C31.1814 3.63212 29.3124 2.63333 27.2912 2.63333C24.991 2.63333 22.9168 3.93991 22.1487 5.88487C21.9474 6.39523 21.4112 6.74336 20.8062 6.76265C20.1982 6.78282 19.6424 6.46889 19.3998 5.97344L19.497 5.74632L10.7306 7.7211V10.2466H19.5648C19.4783 9.65291 19.8565 9.06451 20.5076 8.84616C20.6775 8.78828 20.8533 8.7611 21.0262 8.7611Z" fill="#F6C906"/>
<path d="M53.5267 9.36878H49.5982C48.785 9.36878 48.125 8.7795 48.125 8.05255C48.125 7.3256 48.785 6.73633 49.5982 6.73633H53.5267C54.3399 6.73633 54.9999 7.3256 54.9999 8.05255C54.9999 8.7795 54.3389 9.36878 53.5267 9.36878Z" fill="#F6C906"/>
<path d="M5.40169 9.36878H1.47319C0.659988 9.36878 0 8.7795 0 8.05255C0 7.3256 0.659988 6.73633 1.47319 6.73633H5.40169C6.21489 6.73633 6.87488 7.3256 6.87488 8.05255C6.87488 8.7795 6.21489 9.36878 5.40169 9.36878Z" fill="#F6C906"/>
</svg>
