<svg width="55" height="55" viewBox="0 0 55 55" fill="none" xmlns="http://www.w3.org/2000/svg">
<path d="M32.0376 12.4658C31.372 12.4658 30.7212 12.2158 30.1677 11.7475C29.6142 11.2791 29.1828 10.6134 28.9281 9.83455C28.6733 9.05569 28.6067 8.19865 28.7365 7.37182C28.8664 6.54498 29.187 5.78548 29.6577 5.18937C30.1284 4.59325 30.7281 4.18729 31.381 4.02282C32.0339 3.85835 32.7106 3.94276 33.3257 4.26538C33.9407 4.588 34.4663 5.13433 34.8362 5.83528C35.206 6.53624 35.4034 7.36035 35.4034 8.20338C35.4018 9.33324 35.0467 10.4162 34.4158 11.2152C33.785 12.0141 32.9298 12.4638 32.0376 12.4658ZM32.0376 5.45511C31.6084 5.45511 31.1889 5.6163 30.832 5.91828C30.4751 6.22027 30.197 6.64949 30.0327 7.15166C29.8685 7.65384 29.8255 8.20643 29.9092 8.73954C29.993 9.27265 30.1996 9.76234 30.5031 10.1467C30.8066 10.531 31.1933 10.7928 31.6143 10.8988C32.0352 11.0049 32.4716 10.9505 32.8681 10.7424C33.2646 10.5344 33.6036 10.1822 33.842 9.73023C34.0805 9.27828 34.2077 8.74694 34.2077 8.20338C34.2062 7.47511 33.977 6.77724 33.5704 6.26227C33.1638 5.7473 32.6127 5.45711 32.0376 5.45511Z" fill="#F6C90E"/>
<path d="M32.0376 22.7325C31.8837 22.7317 31.7359 22.6558 31.6251 22.5205C31.368 22.2177 25.3599 14.9117 25.3599 8.20377C25.4118 6.00569 26.1378 3.91968 27.3839 2.38814C28.63 0.856603 30.2981 0 32.0346 0C33.771 0 35.4392 0.856603 36.6853 2.38814C37.9314 3.91968 38.6574 6.00569 38.7093 8.20377C38.7093 14.9117 32.7311 22.2177 32.4441 22.5205C32.3348 22.654 32.1894 22.7298 32.0376 22.7325ZM32.0376 1.26876C30.5847 1.26876 29.1912 1.99917 28.1633 3.29952C27.1354 4.59987 26.5571 6.3638 26.5555 8.20377C26.5555 13.3066 30.6985 19.1514 32.0376 20.9003C33.3767 19.1514 37.5137 13.3293 37.5137 8.20377C37.5121 6.36511 36.9346 4.60233 35.908 3.30219C34.8814 2.00206 33.4894 1.27077 32.0376 1.26876Z" fill="#F6C90E"/>
<path d="M32.0377 25.4958C27.0518 25.4958 23.2915 23.2245 23.2915 20.1961C23.2915 18.0914 25.085 16.3046 28.1219 15.4188C28.2765 15.3736 28.439 15.4081 28.5735 15.5146C28.708 15.6211 28.8037 15.7909 28.8393 15.9866C28.875 16.1824 28.8478 16.3881 28.7637 16.5585C28.6796 16.7289 28.5456 16.85 28.391 16.8952C26.0535 17.5841 24.4872 18.909 24.4872 20.1961C24.4872 21.9904 27.5899 23.9816 32.0377 23.9816C36.4855 23.9816 39.5823 21.9829 39.5823 20.1961C39.5823 18.909 38.016 17.5841 35.6844 16.8952C35.6079 16.8728 35.5356 16.8315 35.4716 16.7738C35.4077 16.716 35.3533 16.6429 35.3117 16.5585C35.27 16.4741 35.2419 16.3802 35.229 16.2821C35.216 16.184 35.2184 16.0836 35.2361 15.9866C35.2537 15.8897 35.2863 15.7981 35.3319 15.7171C35.3775 15.6361 35.4353 15.5673 35.5019 15.5146C35.5685 15.4618 35.6427 15.4262 35.7202 15.4098C35.7976 15.3934 35.8769 15.3964 35.9535 15.4188C38.9426 16.3046 40.7779 18.0914 40.7779 20.1961C40.7779 23.2169 37.0176 25.4958 32.0377 25.4958Z" fill="#F6C90E"/>
<path d="M8.74039 41.9702C8.07353 41.9702 7.42163 41.7198 6.86715 41.2506C6.31268 40.7814 5.88051 40.1145 5.62531 39.3343C5.37011 38.554 5.30334 37.6955 5.43344 36.8672C5.56354 36.0389 5.88467 35.278 6.35621 34.6808C6.82776 34.0837 7.42855 33.677 8.0826 33.5122C8.73665 33.3475 9.4146 33.432 10.0307 33.7552C10.6468 34.0784 11.1734 34.6257 11.5439 35.3279C11.9144 36.0301 12.1121 36.8557 12.1121 37.7002C12.1121 38.8327 11.7569 39.9188 11.1246 40.7196C10.4922 41.5204 9.63463 41.9702 8.74039 41.9702ZM8.74039 34.9519C8.30975 34.9519 7.88879 35.1138 7.5308 35.4169C7.17282 35.7201 6.89391 36.1509 6.72938 36.6549C6.56486 37.1589 6.52212 37.7134 6.60657 38.2482C6.69102 38.783 6.89886 39.274 7.20379 39.6591C7.50872 40.0442 7.89702 40.3061 8.31954 40.4116C8.74205 40.5171 9.17977 40.4614 9.5773 40.2517C9.97482 40.0419 10.3143 39.6875 10.5527 39.2333C10.791 38.7791 10.9177 38.2456 10.9165 37.7002C10.9165 36.9693 10.6872 36.2684 10.2791 35.7515C9.87102 35.2347 9.31753 34.9444 8.74039 34.9444V34.9519Z" fill="#F6C90E"/>
<path d="M8.7401 52.2291C8.58907 52.2284 8.44383 52.1554 8.33358 52.0246C8.07651 51.7142 2.06836 44.4082 2.06836 37.7004C2.12031 35.5023 2.84631 33.4163 4.0924 31.8847C5.33848 30.3532 7.00664 29.4966 8.74309 29.4966C10.4795 29.4966 12.1477 30.3532 13.3938 31.8847C14.6399 33.4163 15.3659 35.5023 15.4178 37.7004C15.4178 44.4082 9.43955 51.7142 9.1526 52.0246C9.04084 52.1572 8.89319 52.2303 8.7401 52.2291ZM8.7401 30.7653C7.28824 30.7673 5.89629 31.4986 4.86967 32.7988C3.84305 34.0989 3.26559 35.8617 3.26401 37.7004C3.26401 42.8032 7.40097 48.648 8.7401 50.3969C10.0792 48.648 14.2222 42.8259 14.2222 37.7004C14.2206 35.8604 13.6423 34.0965 12.6144 32.7961C11.5865 31.4958 10.193 30.7653 8.7401 30.7653Z" fill="#F6C90E"/>
<path d="M8.74022 54.9998C3.76033 54.9998 0 52.7285 0 49.7001C0 47.5954 1.79348 45.8162 4.82446 44.9229C4.90296 44.9 4.98426 44.8969 5.0637 44.9139C5.14314 44.9308 5.21918 44.9673 5.28746 45.0215C5.35574 45.0756 5.41493 45.1462 5.46166 45.2294C5.50838 45.3125 5.54173 45.4064 5.55978 45.5058C5.57784 45.6052 5.58026 45.7082 5.56689 45.8088C5.55353 45.9094 5.52466 46.0057 5.48191 46.0922C5.43917 46.1786 5.38339 46.2536 5.31777 46.3128C5.25215 46.372 5.17796 46.4142 5.09946 46.4371C2.76196 47.0579 1.19565 48.3979 1.19565 49.685C1.19565 51.4793 4.29239 53.4705 8.74022 53.4705C13.188 53.4705 16.2908 51.4642 16.2908 49.685C16.2908 48.3979 14.7245 47.073 12.387 46.3841C12.3084 46.3612 12.2343 46.319 12.1686 46.2598C12.103 46.2006 12.0472 46.1257 12.0045 46.0392C11.9618 45.9527 11.9329 45.8564 11.9195 45.7558C11.9062 45.6552 11.9086 45.5522 11.9266 45.4528C11.9447 45.3534 11.978 45.2595 12.0248 45.1764C12.0715 45.0933 12.1307 45.0226 12.199 44.9685C12.2672 44.9143 12.3433 44.8778 12.4227 44.8609C12.5022 44.8439 12.5834 44.847 12.662 44.8699C15.681 45.7632 17.4864 47.5424 17.4864 49.6471C17.4864 52.7134 13.75 54.9998 8.74022 54.9998Z" fill="#F6C90E"/>
<path d="M46.2597 41.9702C45.5923 41.9732 44.9392 41.7253 44.3832 41.258C43.8271 40.7906 43.3931 40.1247 43.1361 39.3448C42.879 38.5648 42.8106 37.7058 42.9393 36.8765C43.0681 36.0472 43.3882 35.2849 43.8593 34.6862C44.3304 34.0875 44.9311 33.6793 45.5855 33.5133C46.2399 33.3473 46.9184 33.431 47.5352 33.7538C48.152 34.0765 48.6794 34.6238 49.0504 35.3263C49.4214 36.0288 49.6195 36.855 49.6195 37.7002C49.6179 38.8294 49.2638 39.9121 48.6344 40.712C48.005 41.5119 47.1514 41.9642 46.2597 41.9702ZM46.2597 34.9519C45.8285 34.9489 45.4064 35.1082 45.0468 35.4095C44.6873 35.7108 44.4065 36.1406 44.2402 36.6444C44.0738 37.1481 44.0293 37.7031 44.1124 38.2388C44.1955 38.7746 44.4024 39.2671 44.7069 39.6537C45.0113 40.0403 45.3996 40.3037 45.8224 40.4104C46.2453 40.5171 46.6836 40.4624 47.0818 40.2531C47.4801 40.0438 47.8202 39.6894 48.0591 39.2349C48.2981 38.7804 48.425 38.2462 48.4238 37.7002C48.4238 36.9719 48.1962 36.2732 47.7907 35.7568C47.3852 35.2405 46.8347 34.9483 46.2597 34.9443V34.9519Z" fill="#F6C90E"/>
<path d="M46.2597 52.2291C46.1067 52.2303 45.959 52.1572 45.8473 52.0246C45.5902 51.7142 39.582 44.4082 39.582 37.7004C39.634 35.5023 40.36 33.4163 41.6061 31.8847C42.8522 30.3532 44.5203 29.4966 46.2568 29.4966C47.9932 29.4966 49.6614 30.3532 50.9074 31.8847C52.1535 33.4163 52.8795 35.5023 52.9315 37.7004C52.9315 44.4082 46.9233 51.7142 46.6663 52.0246C46.556 52.1554 46.4108 52.2284 46.2597 52.2291ZM46.2597 30.7653C44.8068 30.7653 43.4134 31.4958 42.3855 32.7961C41.3575 34.0965 40.7793 35.8604 40.7777 37.7004C40.7777 42.8032 44.9206 48.648 46.2597 50.3969C47.5989 48.648 51.7358 42.8259 51.7358 37.7004C51.7343 35.8617 51.1568 34.0989 50.1302 32.7988C49.1036 31.4986 47.7116 30.7673 46.2597 30.7653Z" fill="#F6C90E"/>
<path d="M46.2599 55C41.274 55 37.5137 52.7287 37.5137 49.7003C37.5137 47.5956 39.3072 45.8164 42.3441 44.923C42.4226 44.9006 42.5038 44.8981 42.5831 44.9154C42.6624 44.9328 42.7382 44.9698 42.8062 45.0243C42.8742 45.0788 42.9331 45.1497 42.9795 45.233C43.0258 45.3163 43.0588 45.4103 43.0764 45.5098C43.0941 45.6092 43.0961 45.712 43.0824 45.8124C43.0687 45.9129 43.0395 46.0089 42.9965 46.095C42.9534 46.1811 42.8974 46.2557 42.8317 46.3144C42.7659 46.3731 42.6916 46.4148 42.6131 46.4372C40.2756 47.1262 38.7093 48.4511 38.7093 49.7381C38.7093 51.5325 41.812 53.5236 46.2599 53.5236C50.7077 53.5236 53.8044 51.4795 53.8044 49.6851C53.8044 48.3981 52.2381 47.0732 49.9066 46.3842C49.7481 46.339 49.6102 46.2159 49.5233 46.042C49.4364 45.8681 49.4076 45.6576 49.4433 45.4568C49.479 45.256 49.5762 45.0813 49.7135 44.9713C49.8508 44.8613 50.0171 44.8248 50.1756 44.87C53.2066 45.8012 55.0001 47.5804 55.0001 49.6851C55.0001 52.7135 51.2398 55 46.2599 55Z" fill="#F6C90E"/>
<path d="M15.3644 47.8151C15.2432 47.8169 15.1243 47.772 15.0237 47.6864C14.8929 47.5729 14.803 47.3983 14.7739 47.2009C14.7447 47.0036 14.7787 46.7997 14.8682 46.634L27.3209 23.6485C27.3649 23.5652 27.4214 23.4937 27.4873 23.4382C27.5532 23.3827 27.6271 23.3443 27.7048 23.3253C27.7825 23.3063 27.8624 23.307 27.9398 23.3273C28.0173 23.3477 28.0908 23.3873 28.1561 23.444C28.2214 23.5006 28.2771 23.5731 28.3201 23.6572C28.3631 23.7413 28.3925 23.8354 28.4066 23.934C28.4207 24.0326 28.4191 24.1337 28.4021 24.2316C28.3851 24.3295 28.3529 24.4221 28.3074 24.504L15.8546 47.4592C15.8024 47.5651 15.7304 47.653 15.6448 47.7151C15.5593 47.7772 15.463 47.8115 15.3644 47.8151Z" fill="#F6C90E"/>
<path d="M38.3085 51.4418L16.8644 50.4424C16.7059 50.4424 16.5538 50.3627 16.4417 50.2207C16.3296 50.0787 16.2666 49.8861 16.2666 49.6853C16.2666 49.4845 16.3296 49.292 16.4417 49.15C16.5538 49.008 16.7059 48.9282 16.8644 48.9282L38.2905 49.9276C38.4491 49.9276 38.6011 50.0074 38.7132 50.1493C38.8254 50.2913 38.8883 50.4839 38.8883 50.6847C38.8883 50.8855 38.8254 51.0781 38.7132 51.22C38.6011 51.362 38.4491 51.4418 38.2905 51.4418H38.3085Z" fill="#F6C90E"/>
</svg>
