<svg width="60" height="59" viewBox="0 0 60 59" fill="none" xmlns="http://www.w3.org/2000/svg">
<circle cx="29.8691" cy="29.5" r="29.5" fill="#2E4750"/>
<path d="M29.7374 15.9326C34.1134 15.9326 34.6313 15.9486 36.3594 16.0284C37.9569 16.1009 38.8245 16.3679 39.402 16.5928C40.1666 16.8902 40.7122 17.2443 41.2867 17.8188C41.8599 18.392 42.2153 18.9375 42.5128 19.7021C42.7377 20.2796 43.0046 21.1472 43.0772 22.7447C43.1555 24.4728 43.1729 24.9908 43.1729 29.3668C43.1729 33.7428 43.1555 34.2607 43.0772 35.9888C43.0046 37.5863 42.7377 38.4539 42.5128 39.0314C42.2153 39.796 41.8613 40.3416 41.2867 40.9161C40.7136 41.4893 40.1681 41.8447 39.402 42.1422C38.8245 42.3671 37.9569 42.6341 36.3594 42.7066C34.6313 42.785 34.1134 42.8024 29.7374 42.8024C25.3614 42.8024 24.8434 42.785 23.1153 42.7066C21.5178 42.6341 20.6502 42.3671 20.0727 42.1422C19.3081 41.8447 18.7625 41.4893 18.188 40.9161C17.6148 40.343 17.2594 39.7975 16.9619 39.0314C16.7385 38.4539 16.4701 37.5863 16.3975 35.9888C16.3192 34.2607 16.3018 33.7428 16.3018 29.3668C16.3018 24.9908 16.3177 24.4728 16.3975 22.7447C16.4701 21.1472 16.7385 20.2796 16.9619 19.7021C17.2594 18.9375 17.6148 18.392 18.188 17.8188C18.7611 17.2457 19.3066 16.8902 20.0727 16.5928C20.6502 16.3679 21.5178 16.1009 23.1153 16.0284C24.8434 15.9486 25.3614 15.9326 29.7374 15.9326ZM29.7374 12.98C25.2874 12.98 24.7287 12.9989 22.9804 13.0787C21.2364 13.1585 20.0451 13.4356 19.0019 13.8404C17.9239 14.2597 17.0098 14.8198 16.0986 15.7309C15.1874 16.6421 14.6274 17.5562 14.2095 18.6343C13.8047 19.676 13.5276 20.8672 13.4478 22.6127C13.368 24.3611 13.3491 24.9182 13.3491 29.3697C13.3491 33.8211 13.368 34.3783 13.4478 36.1266C13.5276 37.8707 13.8047 39.0619 14.2095 40.1051C14.6274 41.1831 15.1874 42.0958 16.0986 43.0084C17.0098 43.9196 17.9239 44.4796 19.0019 44.899C20.0437 45.3038 21.2349 45.5809 22.9804 45.6607C24.7287 45.7405 25.2859 45.7593 29.7374 45.7593C34.1873 45.7593 34.746 45.7405 36.4943 45.6607C38.2383 45.5809 39.4295 45.3038 40.4728 44.899C41.5508 44.4796 42.4649 43.9196 43.3761 43.0084C44.2873 42.0972 44.8473 41.1831 45.2666 40.1051C45.6714 39.0633 45.9486 37.8721 46.0284 36.1266C46.1082 34.3783 46.127 33.8211 46.127 29.3697C46.127 24.9182 46.1082 24.3611 46.0284 22.6127C45.9486 20.8687 45.6714 19.6775 45.2666 18.6343C44.8473 17.5562 44.2873 16.6421 43.3761 15.7309C42.4649 14.8198 41.5508 14.2597 40.4728 13.8404C39.431 13.4356 38.2398 13.1585 36.4943 13.0787C34.746 12.9989 34.1873 12.98 29.7374 12.98Z" fill="white"/>
<path d="M29.7372 20.9524C25.0898 20.9524 21.3218 24.7205 21.3218 29.3678C21.3218 34.0151 25.0898 37.7832 29.7372 37.7832C34.3845 37.7832 38.1525 34.0151 38.1525 29.3678C38.1525 24.7205 34.3845 20.9524 29.7372 20.9524ZM29.7372 34.8291C26.7207 34.8291 24.2744 32.3828 24.2744 29.3663C24.2744 26.3499 26.7207 23.9036 29.7372 23.9036C32.7536 23.9036 35.1999 26.3499 35.1999 29.3663C35.1999 32.3828 32.7536 34.8291 29.7372 34.8291Z" fill="white"/>
<path d="M40.4511 20.6191C40.4511 21.7044 39.5703 22.5851 38.4851 22.5851C37.3983 22.5851 36.519 21.7044 36.519 20.6191C36.519 19.5338 37.3998 18.6531 38.4851 18.6531C39.5718 18.6531 40.4511 19.5338 40.4511 20.6191Z" fill="white"/>
</svg>
