<svg width="50" height="43" viewBox="0 0 50 43" fill="none" xmlns="http://www.w3.org/2000/svg">
<path d="M42.1739 23.2109L42.1741 23.2111C42.9241 23.9615 43.3082 24.8977 43.3082 25.9616L43.3082 26.9227C43.3082 29.3117 42.4513 31.3787 40.7613 33.0686L40.7612 33.0687C39.0714 34.7581 37.0041 35.6149 34.6154 35.6149L32.6924 35.6149C32.4469 35.6149 32.2477 35.6928 32.0472 35.8932C31.8473 36.0933 31.7695 36.2922 31.7695 36.5379L31.7695 40.3844C31.7695 40.6301 31.8475 40.8295 32.0474 41.0296C32.248 41.2298 32.4473 41.3076 32.6924 41.3076L34.6154 41.3076C36.5648 41.3076 38.4185 40.9286 40.1859 40.1715L42.1739 23.2109ZM42.1739 23.2109C41.4232 22.4602 40.4867 22.0767 39.4233 22.0767L32.6924 22.0767C31.3522 22.0767 30.2448 21.6189 29.3131 20.6871C28.3803 19.7543 27.9227 18.6481 27.9227 17.3073L27.9227 5.76942C27.9227 4.42831 28.3803 3.32196 29.3125 2.38924C30.2449 1.45742 31.3517 0.999983 32.6917 0.999983L44.2307 0.999984C45.5711 0.999984 46.6783 1.4576 47.6105 2.38954C48.5426 3.32209 49 4.42829 49 5.76942L49 26.9228C49 28.8723 48.6212 30.7264 47.8638 32.4935L47.8638 32.4935C47.0998 34.2763 46.0732 35.8058 44.7858 37.0927L44.7857 37.0929M42.1739 23.2109L44.7857 37.0929M44.7857 37.0929C43.498 38.3805 41.9685 39.4074 40.1862 40.1714L44.7857 37.0929Z" stroke="#FFAF1E" stroke-width="2"/>
<path d="M13.8369 33.0686L13.837 33.0685C15.5261 31.3786 16.383 29.3116 16.383 26.9227L16.383 25.9616C16.383 24.8983 15.9999 23.9619 15.249 23.2111C14.4988 22.4599 13.5613 22.0767 12.4988 22.0767L5.76807 22.0767C4.42745 22.0767 3.32052 21.6189 2.38872 20.6871C1.45688 19.7546 0.999916 18.6485 1 17.3074L1 17.3073L1.00001 5.76942C1.00001 4.42792 1.45698 3.32182 2.38942 2.38947L2.38949 2.38941C3.32123 1.45758 4.42801 0.999983 5.7687 0.999983L17.3071 0.999984C18.6476 0.999984 19.7545 1.45758 20.6864 2.38944C21.6184 3.32219 22.0762 4.42851 22.0762 5.76942L22.0762 26.9228C22.0762 28.8721 21.6969 30.7263 20.9396 32.4936L20.9396 32.4937C20.176 34.2761 19.149 35.8057 17.8614 37.0927L17.8612 37.0929C16.5734 38.3807 15.0443 39.4076 13.2623 40.1716C11.4942 40.9286 9.64105 41.3076 7.69048 41.3076L5.76797 41.3076C5.52245 41.3076 5.32314 41.2296 5.12318 41.03C4.92258 40.8292 4.8445 40.6295 4.8445 40.3844L4.8445 36.5379C4.8445 36.293 4.92245 36.0935 5.12327 35.8925C5.32305 35.6929 5.5222 35.6149 5.76797 35.6149L7.69048 35.6149C10.0802 35.6149 12.1475 34.7581 13.8369 33.0686Z" stroke="#FFAF1E" stroke-width="2"/>
</svg>
