<svg width="54" height="54" viewBox="0 0 54 54" fill="none" xmlns="http://www.w3.org/2000/svg">
<circle cx="27" cy="27" r="27" fill="#FFAF1E"/>
<path d="M29.6116 40C29.475 40.001 29.3395 39.967 29.213 39.8998C29.0866 39.8326 28.9715 39.7337 28.8745 39.6086C28.7772 39.4831 28.6999 39.3338 28.6472 39.1693C28.5945 39.0049 28.5674 38.8284 28.5674 38.6503C28.5674 38.4721 28.5945 38.2957 28.6472 38.1312C28.6999 37.9667 28.7772 37.8174 28.8745 37.692L37.4918 26.5027L28.8745 15.3135C28.679 15.0594 28.5692 14.7147 28.5692 14.3552C28.5692 13.9958 28.679 13.6511 28.8745 13.3969C29.07 13.1428 29.3352 13 29.6116 13C29.8881 13 30.1533 13.1428 30.3488 13.3969L39.6928 25.5444C39.7902 25.6699 39.8674 25.8192 39.9201 25.9837C39.9728 26.1482 40 26.3246 40 26.5027C40 26.6809 39.9728 26.8573 39.9201 27.0218C39.8674 27.1863 39.7902 27.3356 39.6928 27.4611L30.3488 39.6086C30.2518 39.7337 30.1367 39.8326 30.0102 39.8998C29.8837 39.967 29.7483 40.001 29.6116 40Z" fill="white"/>
<path d="M38.9557 27.8528H14.0382C13.7629 27.8528 13.4988 27.7106 13.3041 27.4574C13.1094 27.2043 13 26.861 13 26.503C13 26.1451 13.1094 25.8018 13.3041 25.5486C13.4988 25.2955 13.7629 25.1533 14.0382 25.1533H38.9557C39.2311 25.1533 39.4952 25.2955 39.6899 25.5486C39.8846 25.8018 39.994 26.1451 39.994 26.503C39.994 26.861 39.8846 27.2043 39.6899 27.4574C39.4952 27.7106 39.2311 27.8528 38.9557 27.8528Z" fill="white"/>
</svg>
