<svg width="60" height="45" viewBox="0 0 60 45" fill="none" xmlns="http://www.w3.org/2000/svg">
<path d="M0 33.056H11.7796C10.9965 34.444 10.5235 36.142 10.5235 38.017H4.72088L0 36.432V33.056ZM60 24.213V38.018H55C55 37.821 54.9804 37.635 54.9683 37.438C54.914 36.309 54.6794 35.232 54.3082 34.258C53.2732 31.576 51.1761 29.742 48.75 29.742C45.2972 29.742 42.4962 33.45 42.4962 38.017H23.0198C23.0198 36.142 22.549 34.444 21.76 33.056H40.3832V4.326H50.8291V7.639L54.1611 20.895L60 24.213ZM51.6596 20.896L49.1672 10.954H43.3321V20.896H51.6596ZM21.3518 38.017C21.3518 41.372 19.3014 44.096 16.7758 44.096C14.2403 44.096 12.1915 41.362 12.1915 38.017C12.1915 34.677 14.2441 31.949 16.7758 31.949C19.3007 31.949 21.3518 34.672 21.3518 38.017ZM19.2713 38.017C19.2713 36.195 18.148 34.703 16.775 34.703C15.3885 34.703 14.263 36.195 14.263 38.017C14.263 39.861 15.3877 41.33 16.775 41.33C18.1488 41.331 19.2713 39.861 19.2713 38.017ZM53.3321 38.017C53.3321 41.372 51.2734 44.096 48.75 44.096C46.2032 44.096 44.1641 41.362 44.1641 38.017C44.1641 34.677 46.2191 31.949 48.75 31.949C51.2734 31.949 53.3321 34.672 53.3321 38.017ZM51.2508 38.017C51.2508 36.195 50.1298 34.703 48.7508 34.703C47.3559 34.703 46.2515 36.195 46.2515 38.017C46.2515 39.861 47.3567 41.33 48.7508 41.33C50.129 41.331 51.2508 39.861 51.2508 38.017ZM38.2348 0H0V31.151H38.2348V0Z" fill="#F6C90E"/>
</svg>
