<svg width="55" height="55" viewBox="0 0 55 55" fill="none" xmlns="http://www.w3.org/2000/svg">
<path d="M51.9284 0H3.07147C1.37762 0 0 1.14781 0 2.55865V9.82956V54.1129C0 54.6028 0.476958 55 1.06511 55H53.9349C54.523 55 55 54.6028 55 54.1129V9.82956V2.55865C54.9999 1.14781 53.6223 0 51.9284 0ZM2.13023 2.55865C2.13023 2.12593 2.55244 1.77419 3.07147 1.77419H51.9283C52.4473 1.77419 52.8697 2.12593 52.8697 2.55865V8.94247H2.13023V2.55865ZM52.8697 53.2258H2.13023V10.7167H52.8698L52.8697 53.2258Z" fill="#F6C906"/>
<path d="M9.30134 28.6418H44.9951C46.2464 28.6418 47.2642 27.7936 47.2642 26.7515V22.909C47.2642 21.8651 46.2464 21.0161 44.9951 21.0161H9.30134C8.05005 21.0161 7.03223 21.8651 7.03223 22.909V26.7515C7.03223 27.7937 8.05005 28.6418 9.30134 28.6418ZM9.16245 22.909C9.16245 22.8457 9.22742 22.7903 9.30134 22.7903H44.9951C45.0689 22.7903 45.134 22.8457 45.134 22.909V26.7515C45.134 26.8134 45.069 26.8676 44.9951 26.8676H9.30134C9.22753 26.8676 9.16245 26.8135 9.16245 26.7515V22.909Z" fill="#F6C906"/>
<path d="M9.30134 39.0071H44.9951C46.2464 39.0071 47.2642 38.1594 47.2642 37.1172V33.2717C47.2642 32.2295 46.2464 31.3813 44.9951 31.3813H9.30134C8.05005 31.3813 7.03223 32.2295 7.03223 33.2717V37.1172C7.03223 38.1594 8.05005 39.0071 9.30134 39.0071ZM9.16245 33.2717C9.16245 33.211 9.22849 33.1555 9.30134 33.1555H44.9951C45.068 33.1555 45.134 33.211 45.134 33.2717V37.1172C45.134 37.1787 45.069 37.2329 44.9951 37.2329H9.30134C9.22753 37.2329 9.16245 37.1788 9.16245 37.1172V33.2717Z" fill="#F6C906"/>
<path d="M17.6154 17.7761H36.6808C37.269 17.7761 37.7459 17.3789 37.7459 16.889C37.7459 16.3992 37.269 16.002 36.6808 16.002H17.6154C17.0273 16.002 16.5503 16.3992 16.5503 16.889C16.5503 17.3789 17.0273 17.7761 17.6154 17.7761Z" fill="#F6C906"/>
<path d="M38.1282 4.47168H38.0949C37.5067 4.47168 37.0464 4.86892 37.0464 5.35878C37.0464 5.84863 37.54 6.24587 38.1281 6.24587C38.7163 6.24587 39.1932 5.84863 39.1932 5.35878C39.1932 4.86892 38.7165 4.47168 38.1282 4.47168Z" fill="#F6C906"/>
<path d="M42.8411 4.47168H42.8078C42.2196 4.47168 41.7593 4.86892 41.7593 5.35878C41.7593 5.84863 42.2528 6.24587 42.841 6.24587C43.4292 6.24587 43.9061 5.84863 43.9061 5.35878C43.9061 4.86892 43.4294 4.47168 42.8411 4.47168Z" fill="#F6C906"/>
<path d="M47.554 4.47168H47.5207C46.9325 4.47168 46.4722 4.86892 46.4722 5.35878C46.4722 5.84863 46.9657 6.24587 47.5539 6.24587C48.1421 6.24587 48.619 5.84863 48.619 5.35878C48.619 4.86892 48.1423 4.47168 47.554 4.47168Z" fill="#F6C906"/>
<path d="M45.3267 41.9526H35.9446C34.8763 41.9526 34.0073 42.6764 34.0073 43.5665V46.3447C34.0073 47.2349 34.8763 47.9586 35.9446 47.9586H45.3267C46.3954 47.9586 47.2645 47.2349 47.2645 46.3447V43.5665C47.2646 42.6764 46.3954 41.9526 45.3267 41.9526ZM45.1343 46.1845H36.1376V43.7268H45.1343V46.1845Z" fill="#F6C906"/>
<path d="M8.35194 51.8483C8.37239 51.9149 8.36578 51.987 8.33354 52.0488C8.3013 52.1105 8.24607 52.1568 8.17996 52.1776C8.15477 52.1856 8.12853 52.1896 8.10214 52.1895C8.0464 52.1894 7.99214 52.1714 7.94727 52.1381C7.90239 52.1048 7.86925 52.058 7.85267 52.0044L7.70455 51.5255C7.68391 51.4588 7.69044 51.3865 7.72269 51.3246C7.75495 51.2627 7.81028 51.2163 7.87653 51.1955C7.94279 51.1747 8.01452 51.1813 8.07596 51.2138C8.1374 51.2463 8.18351 51.302 8.20415 51.3687L8.35194 51.8483ZM10.5553 51.1622C10.546 51.1282 10.53 51.0964 10.5082 51.0687C10.4864 51.041 10.4593 51.0181 10.4286 51.0011C10.3978 50.9842 10.364 50.9737 10.3291 50.9702C10.2942 50.9667 10.259 50.9703 10.2255 50.9808C10.192 50.9913 10.161 51.0084 10.1342 51.0312C10.1075 51.0541 10.0855 51.0821 10.0697 51.1136C10.0539 51.1451 10.0446 51.1795 10.0422 51.2147C10.0399 51.25 10.0446 51.2853 10.0561 51.3187L10.2038 51.7976C10.2204 51.8513 10.2536 51.8982 10.2985 51.9316C10.3434 51.965 10.3978 51.983 10.4536 51.983C10.4801 51.983 10.5063 51.9788 10.5315 51.9708C10.5976 51.95 10.6528 51.9037 10.685 51.8419C10.7173 51.7802 10.7239 51.7081 10.7034 51.6414L10.5553 51.1622ZM9.3799 51.2657C9.36971 51.2326 9.35315 51.2019 9.33117 51.1753C9.3092 51.1487 9.28224 51.1267 9.25183 51.1106C9.22142 51.0945 9.18817 51.0846 9.15396 51.0815C9.11975 51.0783 9.08526 51.082 9.05245 51.0923C9.01965 51.1025 8.98917 51.1192 8.96277 51.1413C8.93636 51.1635 8.91455 51.1906 8.89856 51.2213C8.88258 51.2519 8.87274 51.2854 8.8696 51.3199C8.86647 51.3543 8.87011 51.3891 8.88031 51.4221L9.02809 51.901C9.04463 51.9547 9.0778 52.0017 9.12275 52.035C9.1677 52.0684 9.22206 52.0864 9.27789 52.0864C9.30427 52.0863 9.33049 52.0823 9.35571 52.0745C9.42182 52.0538 9.47705 52.0074 9.50929 51.9457C9.54153 51.8839 9.54815 51.8118 9.52769 51.7452L9.3799 51.2657ZM18.2968 47.8813C17.466 49.339 16.5037 50.4644 15.4372 51.2261C14.8876 51.6187 13.4937 52.035 12.661 52.284C12.487 52.3357 12.3366 52.3808 12.2323 52.4157C11.0486 52.7985 9.81353 52.9956 8.57035 53C7.47568 53 6.792 52.8353 6.73936 52.8235C6.6956 52.8126 6.65535 52.7906 6.62253 52.7595C6.58971 52.7284 6.56541 52.6893 6.55201 52.646L6.01056 50.8853C6.00767 50.876 6.00527 50.8665 6.00337 50.8569C6.00337 50.8569 6.00337 50.8543 6.00337 50.853C6.00337 50.8451 6.00076 50.8368 6.0001 50.8289C6.00027 50.8259 6.00027 50.8228 6.0001 50.8197C6.0001 50.8135 6.0001 50.8069 6.0001 50.8006C6.0001 50.7944 6.0001 50.794 6.0001 50.7907C6.00042 50.7843 6.00107 50.778 6.00206 50.7716C6.00191 50.7687 6.00191 50.7657 6.00206 50.7627C6.00206 50.7548 6.00501 50.7473 6.00697 50.7397C6.00683 50.7383 6.00683 50.7368 6.00697 50.7354C6.0122 50.7167 6.01955 50.6987 6.02887 50.6817L6.03214 50.6758C6.03576 50.6695 6.03969 50.6633 6.04391 50.6574L6.04588 50.6541L6.04947 50.6498L6.06124 50.635L6.06876 50.6264L6.07334 50.6218L7.54467 49.1397C7.5116 48.8252 7.49545 48.5091 7.49628 48.1928C7.49628 46.992 7.72515 45.8924 8.12176 45.1299C7.07221 45.1856 6.29077 45.2402 6.27965 45.2412C6.24089 45.2439 6.20202 45.2379 6.16585 45.2236C6.12969 45.2093 6.09715 45.187 6.0706 45.1584C6.04405 45.1299 6.02415 45.0957 6.01235 45.0584C6.00055 45.0211 5.99715 44.9816 6.00239 44.9428C6.23126 43.2464 8.00863 42.0084 9.04706 41.4215C10.5988 40.5447 12.4288 40 13.8233 40C13.8655 40 13.908 40 13.9498 40C15.7782 40.0428 17.4104 41.0309 18.3145 42.6447C19.2342 44.2914 19.2286 46.2474 18.2968 47.8813ZM8.01942 48.1928C8.01929 48.5009 8.03621 48.8088 8.0701 49.115C8.09256 49.1644 8.0993 49.2197 8.08939 49.2731C8.13624 49.6415 8.21456 50.0051 8.32349 50.36C9.13468 50.2467 10.0649 50.0635 10.8823 49.7714C11.2068 49.6578 11.5209 49.5164 11.8213 49.3485C12.2026 49.1293 12.4936 48.7802 12.642 48.3641C13.3816 46.3004 13.5778 45.3921 13.5801 45.1256C13.3914 45.067 12.6453 44.9461 9.75885 45.0542C9.41554 45.067 9.07485 45.0818 8.74821 45.0976C8.29603 45.757 8.01942 46.9262 8.01942 48.1928ZM7.64145 49.7882L6.92704 50.5078C7.16964 50.4904 7.46554 50.4647 7.79545 50.4275C7.73561 50.2249 7.68395 50.0108 7.64145 49.7882ZM17.859 42.9048C17.0462 41.4537 15.5801 40.5665 13.9355 40.5276C13.8975 40.5276 13.8593 40.5276 13.8207 40.5276C12.5305 40.5276 10.7561 41.0592 9.30045 41.8816C7.83893 42.7079 6.87113 43.7164 6.58667 44.6929C7.00028 44.6662 7.74444 44.6204 8.59977 44.5786H8.60304C9.03659 44.5575 9.49859 44.5374 9.96092 44.5213C11.0507 44.4834 11.9282 44.4752 12.5691 44.4969C13.7298 44.5361 13.9842 44.6599 14.0666 44.8895C14.1182 45.0334 14.2556 45.4148 13.1315 48.5452C12.9406 49.0794 12.5667 49.5274 12.077 49.8086C11.7501 49.9915 11.4083 50.1457 11.0553 50.2697C9.41424 50.8576 7.40604 51.016 6.60858 51.0572L7.00486 52.3416C7.54336 52.4404 9.55908 52.7184 12.0728 51.9135C12.182 51.8786 12.3343 51.8331 12.5109 51.7817C13.26 51.5578 14.6544 51.1415 15.1331 50.7993C16.1379 50.082 17.0491 49.0129 17.842 47.6218C18.2547 46.9058 18.4734 46.0933 18.4764 45.2654C18.4794 44.4376 18.2665 43.6235 17.859 42.9045V42.9048ZM15.6795 45.9408C15.7149 46 15.7383 46.0656 15.7484 46.1339C15.7585 46.2023 15.7551 46.2719 15.7383 46.3389L15.2028 48.4975C15.1853 48.5666 15.1541 48.6314 15.1111 48.688C15.068 48.7446 15.014 48.7919 14.9523 48.8268L14.4033 49.1387C14.3144 49.1888 14.2128 49.2116 14.1111 49.2043C14.0095 49.197 13.9121 49.16 13.8311 49.0978C13.75 49.0356 13.6888 48.9508 13.6549 48.854C13.621 48.7572 13.6159 48.6525 13.6402 48.5528L14.2807 45.9711C14.3145 45.8359 14.4002 45.7197 14.5189 45.6479C14.6376 45.5762 14.7797 45.5548 14.9141 45.5884L15.3581 45.7C15.4248 45.7167 15.4875 45.7466 15.5427 45.7878C15.5978 45.8291 15.6443 45.881 15.6795 45.9404V45.9408ZM15.2309 46.2108L14.7875 46.1002L14.1486 48.6796L14.696 48.369L15.2312 46.2108H15.2309Z" fill="#F6C906"/>
</svg>
