<svg width="50" height="50" viewBox="0 0 50 50" fill="none" xmlns="http://www.w3.org/2000/svg">
<circle cx="25" cy="25" r="25" fill="#FFAF1E"/>
<path d="M29.9838 12.5436C26.9554 10.4855 23.0424 10.4855 20.0158 12.5436C16.1153 15.192 14.8666 20.3528 17.1117 24.5471L24.9998 39.2857L32.8879 24.5471C35.133 20.3528 33.8861 15.192 29.9838 12.5436ZM31.3302 23.6818L25.0016 35.5078L18.6712 23.6818C16.8702 20.3148 17.8702 16.1749 21.0016 14.0497C22.2165 13.2243 23.6073 12.8097 24.9998 12.8097C26.3923 12.8097 27.7831 13.2225 28.998 14.0479C32.1294 16.1749 33.1312 20.3148 31.3302 23.6818Z" fill="white"/>
<path d="M24.9999 14.77C22.5523 14.77 20.5594 16.8011 20.5594 19.2955C20.5594 21.79 22.5523 23.821 24.9999 23.821C27.4475 23.821 29.4404 21.79 29.4404 19.2955C29.4404 16.8011 27.4493 14.77 24.9999 14.77ZM24.9999 22.0108C23.531 22.0108 22.3356 20.7926 22.3356 19.2955C22.3356 17.7985 23.531 16.5802 24.9999 16.5802C26.4688 16.5802 27.6642 17.7985 27.6642 19.2955C27.6642 20.7926 26.4688 22.0108 24.9999 22.0108Z" fill="white"/>
</svg>
