<svg width="50" height="50" viewBox="0 0 50 50" fill="none" xmlns="http://www.w3.org/2000/svg">
<circle cx="25" cy="25" r="25" fill="#FFAF1E"/>
<path d="M34.7042 34.9827L33.047 36.6397C32.751 36.9342 31.8843 37.1204 31.8583 37.1204C26.6122 37.1646 21.5615 35.1048 17.8498 31.3924C14.1274 27.6709 12.0651 22.6005 12.1224 17.3394C12.1224 17.3364 12.3124 16.4941 12.6077 16.2012L14.2648 14.5426C14.8729 13.9353 16.0371 13.6606 16.8527 13.9322L17.2021 14.0497C18.0178 14.3213 18.8699 15.2215 19.0958 16.05L19.9304 19.1124C20.157 19.9425 19.8526 21.1234 19.2453 21.7307L18.1375 22.8384C19.224 26.8651 22.3818 30.0221 26.4064 31.11L27.5142 30.0022C28.1215 29.3949 29.3056 29.0913 30.1357 29.3171L33.1983 30.1533C34.0253 30.3776 34.9256 31.229 35.1988 32.0453L35.3147 32.3947C35.5861 33.2112 35.3115 34.3754 34.7042 34.9827ZM26.1836 24.6207H27.7461C27.7461 22.895 26.3468 21.4958 24.621 21.4958V23.0583C25.4824 23.0583 26.1836 23.7601 26.1836 24.6207ZM32.4336 24.6207C32.4336 20.3056 28.9363 16.8084 24.621 16.8084V18.3709C28.068 18.3709 30.8711 21.1754 30.8711 24.6207H32.4336ZM24.621 12.1211V13.6835C30.6514 13.6835 35.5587 18.5906 35.5587 24.6207H37.1212C37.1212 17.7179 31.5242 12.1211 24.621 12.1211Z" fill="white"/>
</svg>
