<svg width="19" height="14" viewBox="0 0 19 14" fill="none" xmlns="http://www.w3.org/2000/svg">
<path d="M11.1981 14C11.1059 14.0005 11.0146 13.9829 10.9294 13.948C10.8441 13.9132 10.7666 13.8619 10.7012 13.797C10.6356 13.732 10.5835 13.6546 10.548 13.5693C10.5124 13.484 10.4941 13.3925 10.4941 13.3001C10.4941 13.2077 10.5124 13.1163 10.548 13.031C10.5835 12.9457 10.6356 12.8683 10.7012 12.8032L16.51 7.00143L10.7012 1.19962C10.5694 1.06783 10.4953 0.889093 10.4953 0.70272C10.4953 0.516347 10.5694 0.337607 10.7012 0.205822C10.8329 0.0740364 11.0117 0 11.1981 0C11.3844 0 11.5632 0.0740364 11.695 0.205822L17.9937 6.50453C18.0593 6.56959 18.1113 6.64699 18.1469 6.73228C18.1824 6.81756 18.2007 6.90904 18.2007 7.00143C18.2007 7.09381 18.1824 7.18529 18.1469 7.27057C18.1113 7.35586 18.0593 7.43326 17.9937 7.49832L11.695 13.797C11.6296 13.8619 11.552 13.9132 11.4667 13.948C11.3815 13.9829 11.2902 14.0005 11.1981 14Z" fill="#FFAF1E"/>
<path d="M17.4964 7.70135H0.699856C0.514243 7.70135 0.336232 7.62761 0.204983 7.49637C0.0737346 7.36512 0 7.18711 0 7.00149C0 6.81588 0.0737346 6.63787 0.204983 6.50662C0.336232 6.37537 0.514243 6.30164 0.699856 6.30164H17.4964C17.682 6.30164 17.86 6.37537 17.9913 6.50662C18.1225 6.63787 18.1963 6.81588 18.1963 7.00149C18.1963 7.18711 18.1225 7.36512 17.9913 7.49637C17.86 7.62761 17.682 7.70135 17.4964 7.70135Z" fill="#FFAF1E"/>
</svg>
