<svg width="28" height="22" viewBox="0 0 28 22" fill="none" xmlns="http://www.w3.org/2000/svg">
<path d="M24.5 0H3.5C1.56712 0 0 1.64175 0 3.66667V18.3333C0 20.3582 1.56712 22 3.5 22H24.5C26.4329 22 28 20.3582 28 18.3333V3.66667C28 1.64175 26.4329 0 24.5 0ZM18.739 9.78433L26.1475 3.13311C26.1988 3.30498 26.25 3.47686 26.25 3.66667V18.3333C26.25 18.4605 26.2038 18.5733 26.1799 18.6932L18.739 9.78433ZM24.5 1.83333C24.6162 1.83333 24.7188 1.87991 24.8281 1.90317L14 11.6267L3.17188 1.90317C3.28125 1.87991 3.38379 1.83333 3.5 1.83333H24.5ZM1.81923 18.6914C1.79528 18.5714 1.75 18.4605 1.75 18.3333V3.66667C1.75 3.47686 1.80212 3.30498 1.85341 3.13311L9.25931 9.78255L1.81923 18.6914ZM3.5 20.1667C3.32314 20.1667 3.16247 20.1129 3.00098 20.061L10.5889 10.9767L13.4309 13.5279C13.5941 13.6766 13.7975 13.75 14 13.75C14.2025 13.75 14.4059 13.6766 14.5691 13.528L17.4111 10.9767L24.999 20.0611C24.8384 20.1129 24.6777 20.1667 24.5 20.1667H3.5Z" fill="#FFAF1E"/>
</svg>
