<svg width="40" height="40" viewBox="0 0 40 40" fill="none" xmlns="http://www.w3.org/2000/svg">
<circle cx="20" cy="20" r="20" fill="white"/>
<path d="M10.3999 11.6271V27.5737C10.3999 28.2484 10.9519 28.8004 11.6266 28.8004H27.5732C28.2479 28.8004 28.7999 28.2484 28.7999 27.5737V11.6271C28.7999 10.9524 28.2479 10.4004 27.5732 10.4004H11.6266C10.9519 10.4004 10.3999 10.9524 10.3999 11.6271ZM15.6439 25.7337H13.4666V17.2697H15.6439V25.7337ZM14.5706 15.5831C13.9572 15.5831 13.4666 15.1231 13.4666 14.5404C13.4666 13.9577 13.9572 13.4977 14.5706 13.4977C15.1839 13.4977 15.6746 13.9577 15.6746 14.5404C15.6439 15.1231 15.1532 15.5831 14.5706 15.5831ZM25.7332 25.7337H23.5559V21.5017C23.5559 20.6124 23.5252 20.0297 23.4332 19.7537C23.3412 19.4777 23.1879 19.2937 23.0039 19.1404C22.7892 18.9871 22.5439 18.9257 22.2679 18.9257C21.8999 18.9257 21.5626 19.0177 21.2866 19.2324C20.9799 19.4471 20.7959 19.7231 20.6732 20.0604C20.5506 20.3977 20.5199 21.0417 20.5199 21.9617V25.7337H17.8826V17.2697H20.0599V18.5271C20.7959 17.5764 21.7466 17.0857 22.8812 17.0857C23.3719 17.0857 23.8319 17.1777 24.2612 17.3617C24.6599 17.5457 24.9972 17.7604 25.2119 18.0364C25.4266 18.3124 25.5799 18.6191 25.6412 18.9871C25.7332 19.3244 25.7639 19.8457 25.7639 20.4897V25.7337H25.7332Z" fill="#FFAF1E"/>
</svg>
