<svg width="40" height="40" viewBox="0 0 40 40" fill="none" xmlns="http://www.w3.org/2000/svg">
<circle cx="20" cy="20" r="20" fill="white"/>
<path fill-rule="evenodd" clip-rule="evenodd" d="M31.6964 19.5749C31.5443 13.598 26.5745 8.7998 20.4588 8.7998C14.4165 8.7998 9.48947 13.4887 9.22615 19.3711C9.22113 19.5326 9.21528 19.6941 9.21528 19.8565C9.21528 21.9479 9.80462 23.8985 10.8262 25.5675L8.7998 31.4971L15.0268 29.5358C16.6377 30.4121 18.4901 30.9123 20.4588 30.9123C26.6698 30.9123 31.7023 25.9626 31.7023 19.8557C31.7023 19.7621 31.7023 19.6685 31.6964 19.5749ZM20.4588 29.1498C18.5377 29.1498 16.753 28.5865 15.2583 27.6117L11.6262 28.7588L12.8048 25.3065C11.673 23.7734 11.005 21.8907 11.005 19.8565C11.005 19.5542 11.0209 19.2518 11.0527 18.9545C11.5158 14.2499 15.5584 10.5624 20.4588 10.5624C25.4226 10.5624 29.5021 14.3435 29.8807 19.1309C29.9016 19.3711 29.9125 19.6105 29.9125 19.8557C29.9125 24.9827 25.6701 29.1498 20.4588 29.1498Z" fill="#FFAF1E"/>
<path fill-rule="evenodd" clip-rule="evenodd" d="M25.6125 22.0882C25.3333 21.9524 23.9808 21.2955 23.7283 21.2069C23.4759 21.1133 23.2911 21.071 23.1072 21.3427C22.9233 21.6136 22.3916 22.224 22.2336 22.4013C22.0706 22.5835 21.9126 22.605 21.6334 22.4692C21.3601 22.3334 20.4698 22.0517 19.4173 21.1232C18.6015 20.4084 18.0439 19.5222 17.8859 19.2513C17.7279 18.9805 17.87 18.8339 18.0071 18.6989C18.1333 18.5738 18.2805 18.3808 18.4226 18.2243C18.4593 18.1771 18.4911 18.1356 18.5229 18.0934C18.5864 17.994 18.6332 17.9004 18.6968 17.7695C18.7912 17.5873 18.7444 17.4308 18.6758 17.2949C18.6073 17.1591 18.0547 15.8239 17.8232 15.2822C17.5966 14.7397 17.3651 14.8333 17.2021 14.8333C17.0441 14.8333 16.8602 14.8076 16.6754 14.8076C16.4915 14.8076 16.1914 14.8755 15.9381 15.1464C15.6857 15.4172 14.9751 16.0749 14.9751 17.4101C14.9751 17.7232 15.0328 18.0354 15.1172 18.3328C15.3964 19.2869 15.9966 20.0746 16.1011 20.2105C16.2382 20.3877 18.0063 23.2146 20.8067 24.3047C23.6121 25.3839 23.6121 25.0244 24.1179 24.9772C24.6228 24.9358 25.7496 24.3254 25.9762 23.6892C26.2077 23.0581 26.2077 22.5156 26.1392 22.4013C26.0698 22.2911 25.8859 22.2232 25.6125 22.0882Z" fill="#FFAF1E"/>
</svg>
