<svg width="50" height="50" viewBox="0 0 50 50" fill="none" xmlns="http://www.w3.org/2000/svg">
<circle cx="25" cy="25" r="25" fill="#FFAF1E"/>
<path d="M34.7041 34.9827L33.0469 36.6397C32.7509 36.9342 31.8841 37.1204 31.8582 37.1204C26.6121 37.1646 21.5614 35.1048 17.8497 31.3924C14.1273 27.6709 12.065 22.6005 12.1223 17.3394C12.1223 17.3364 12.3123 16.4941 12.6075 16.2012L14.2647 14.5426C14.8728 13.9353 16.037 13.6606 16.8526 13.9322L17.202 14.0497C18.0176 14.3213 18.8698 15.2215 19.0957 16.05L19.9303 19.1124C20.1569 19.9425 19.8525 21.1234 19.2452 21.7307L18.1374 22.8384C19.2238 26.8651 22.3817 30.0221 26.4063 31.11L27.5141 30.0022C28.1214 29.3949 29.3055 29.0913 30.1356 29.3171L33.1982 30.1533C34.0252 30.3776 34.9255 31.229 35.1986 32.0453L35.3146 32.3947C35.586 33.2112 35.3114 34.3754 34.7041 34.9827ZM26.1834 24.6207H27.746C27.746 22.895 26.3467 21.4958 24.6209 21.4958V23.0583C25.4822 23.0583 26.1834 23.7601 26.1834 24.6207ZM32.4335 24.6207C32.4335 20.3056 28.9362 16.8084 24.6209 16.8084V18.3709C28.0679 18.3709 30.871 21.1754 30.871 24.6207H32.4335ZM24.6209 12.1211V13.6835C30.6513 13.6835 35.5586 18.5906 35.5586 24.6207H37.1211C37.1211 17.7179 31.5241 12.1211 24.6209 12.1211Z" fill="white"/>
</svg>
