<svg width="36" height="36" viewBox="0 0 36 36" fill="none" xmlns="http://www.w3.org/2000/svg">
<circle cx="17.9995" cy="18" r="18" fill="white"/>
<path d="M17.9195 9.72154C20.5896 9.72154 20.9057 9.73127 21.9601 9.77996C22.9348 9.82423 23.4642 9.98713 23.8166 10.1244C24.2831 10.3058 24.616 10.5219 24.9666 10.8724C25.3163 11.2221 25.5332 11.555 25.7147 12.0216C25.8519 12.3739 26.0148 12.9033 26.0591 13.8781C26.1069 14.9325 26.1175 15.2485 26.1175 17.9186C26.1175 20.5887 26.1069 20.9048 26.0591 21.9592C26.0148 22.9339 25.8519 23.4633 25.7147 23.8157C25.5332 24.2823 25.3172 24.6151 24.9666 24.9657C24.6169 25.3154 24.284 25.5323 23.8166 25.7138C23.4642 25.851 22.9348 26.0139 21.9601 26.0582C20.9057 26.106 20.5896 26.1166 17.9195 26.1166C15.2494 26.1166 14.9334 26.106 13.879 26.0582C12.9042 26.0139 12.3748 25.851 12.0225 25.7138C11.5559 25.5323 11.223 25.3154 10.8724 24.9657C10.5227 24.616 10.3058 24.2831 10.1243 23.8157C9.98801 23.4633 9.82423 22.9339 9.77996 21.9592C9.73215 20.9048 9.72153 20.5887 9.72153 17.9186C9.72153 15.2485 9.73127 14.9325 9.77996 13.8781C9.82423 12.9033 9.98801 12.3739 10.1243 12.0216C10.3058 11.555 10.5227 11.2221 10.8724 10.8724C11.2221 10.5227 11.555 10.3058 12.0225 10.1244C12.3748 9.98713 12.9042 9.82423 13.879 9.77996C14.9334 9.73127 15.2494 9.72154 17.9195 9.72154ZM17.9195 7.91992C15.2043 7.91992 14.8634 7.93144 13.7966 7.98013C12.7325 8.02882 12.0056 8.19791 11.3691 8.44491C10.7113 8.70077 10.1536 9.04249 9.59759 9.59847C9.04161 10.1544 8.69988 10.7122 8.44491 11.37C8.19791 12.0056 8.02881 12.7325 7.98012 13.7975C7.93142 14.8643 7.91992 15.2043 7.91992 17.9204C7.91992 20.6365 7.93142 20.9765 7.98012 22.0433C8.02881 23.1075 8.19791 23.8343 8.44491 24.4708C8.69988 25.1286 9.04161 25.6855 9.59759 26.2423C10.1536 26.7983 10.7113 27.1401 11.3691 27.3959C12.0047 27.6429 12.7316 27.812 13.7966 27.8607C14.8634 27.9094 15.2034 27.9209 17.9195 27.9209C20.6348 27.9209 20.9756 27.9094 22.0424 27.8607C23.1066 27.812 23.8334 27.6429 24.4699 27.3959C25.1277 27.1401 25.6855 26.7983 26.2415 26.2423C26.7974 25.6864 27.1392 25.1286 27.395 24.4708C27.642 23.8352 27.8111 23.1083 27.8598 22.0433C27.9085 20.9765 27.92 20.6365 27.92 17.9204C27.92 15.2043 27.9085 14.8643 27.8598 13.7975C27.8111 12.7334 27.642 12.0065 27.395 11.37C27.1392 10.7122 26.7974 10.1544 26.2415 9.59847C25.6855 9.04249 25.1277 8.70077 24.4699 8.44491C23.8343 8.19791 23.1074 8.02882 22.0424 7.98013C20.9756 7.93144 20.6348 7.91992 17.9195 7.91992Z" fill="#FFAF1E"/>
<path d="M17.9195 12.7849C15.0838 12.7849 12.7847 15.0841 12.7847 17.9197C12.7847 20.7554 15.0838 23.0545 17.9195 23.0545C20.7551 23.0545 23.0543 20.7554 23.0543 17.9197C23.0543 15.0841 20.7551 12.7849 17.9195 12.7849ZM17.9195 21.252C16.0789 21.252 14.5863 19.7594 14.5863 17.9188C14.5863 16.0783 16.0789 14.5856 17.9195 14.5856C19.76 14.5856 21.2527 16.0783 21.2527 17.9188C21.2527 19.7594 19.76 21.252 17.9195 21.252Z" fill="#FFAF1E"/>
<path d="M24.4568 12.5809C24.4568 13.2432 23.9194 13.7805 23.2572 13.7805C22.5941 13.7805 22.0576 13.2432 22.0576 12.5809C22.0576 11.9187 22.595 11.3813 23.2572 11.3813C23.9203 11.3813 24.4568 11.9187 24.4568 12.5809Z" fill="#FFAF1E"/>
</svg>
