<svg width="36" height="36" viewBox="0 0 36 36" fill="none" xmlns="http://www.w3.org/2000/svg">
<circle cx="18" cy="18" r="18" fill="white"/>
<path d="M9.36035 10.464V24.816C9.36035 25.4232 9.85715 25.92 10.4644 25.92H24.8164C25.4236 25.92 25.9204 25.4232 25.9204 24.816V10.464C25.9204 9.85679 25.4236 9.35999 24.8164 9.35999H10.4644C9.85715 9.35999 9.36035 9.85679 9.36035 10.464ZM14.08 23.16H12.1204V15.5424H14.08V23.16ZM13.114 14.0244C12.562 14.0244 12.1204 13.6104 12.1204 13.086C12.1204 12.5616 12.562 12.1476 13.114 12.1476C13.666 12.1476 14.1076 12.5616 14.1076 13.086C14.08 13.6104 13.6384 14.0244 13.114 14.0244ZM23.1604 23.16H21.2008V19.3512C21.2008 18.5508 21.1732 18.0264 21.0904 17.778C21.0076 17.5296 20.8696 17.364 20.704 17.226C20.5108 17.088 20.29 17.0328 20.0416 17.0328C19.7104 17.0328 19.4068 17.1156 19.1584 17.3088C18.8824 17.502 18.7168 17.7504 18.6064 18.054C18.496 18.3576 18.4684 18.9372 18.4684 19.7652V23.16H16.0948V15.5424H18.0544V16.674C18.7168 15.8184 19.5724 15.3768 20.5936 15.3768C21.0352 15.3768 21.4492 15.4596 21.8356 15.6252C22.1944 15.7908 22.498 15.984 22.6912 16.2324C22.8844 16.4808 23.0224 16.7568 23.0776 17.088C23.1604 17.3916 23.188 17.8608 23.188 18.4404V23.16H23.1604Z" fill="#FFAF1E"/>
</svg>
