<svg width="14" height="22" viewBox="0 0 14 22" fill="none" xmlns="http://www.w3.org/2000/svg">
<path d="M10.8763 1.20061C8.52086 -0.400205 5.47745 -0.400205 3.1234 1.20061C0.0896592 3.26042 -0.881524 7.27444 0.864672 10.5366L6.99985 22L13.135 10.5366C14.8812 7.27444 13.9114 3.26042 10.8763 1.20061ZM11.9235 9.86362L7.00123 19.0616L2.07762 9.86362C0.67679 7.24487 1.45457 4.02493 3.89012 2.37201C4.83506 1.73 5.91676 1.40758 6.99985 1.40758C8.08293 1.40758 9.16463 1.72859 10.1096 2.37061C12.5451 4.02493 13.3243 7.24487 11.9235 9.86362Z" fill="#FFAF1E"/>
<path d="M6.99961 2.93262C5.09592 2.93262 3.5459 4.51232 3.5459 6.45245C3.5459 8.39258 5.09592 9.97228 6.99961 9.97228C8.9033 9.97228 10.4533 8.39258 10.4533 6.45245C10.4533 4.51232 8.90468 2.93262 6.99961 2.93262ZM6.99961 8.56435C5.85712 8.56435 4.92738 7.61681 4.92738 6.45245C4.92738 5.28809 5.85712 4.34055 6.99961 4.34055C8.1421 4.34055 9.07184 5.28809 9.07184 6.45245C9.07184 7.61681 8.1421 8.56435 6.99961 8.56435Z" fill="#FFAF1E"/>
</svg>
