<svg width="59" height="59" viewBox="0 0 59 59" fill="none" xmlns="http://www.w3.org/2000/svg">
<circle cx="29.5" cy="29.5" r="29.5" fill="#2E4750"/>
<path fill-rule="evenodd" clip-rule="evenodd" d="M46.7525 28.8732C46.5281 20.0574 39.1977 12.98 30.1769 12.98C21.2646 12.98 13.9972 19.8961 13.6088 28.5727C13.6014 28.8109 13.5928 29.0491 13.5928 29.2886C13.5928 32.3734 14.4621 35.2505 15.9688 37.7123L12.98 46.4585L22.1648 43.5655C24.5408 44.8581 27.2732 45.596 30.1769 45.596C39.3383 45.596 46.7611 38.295 46.7611 29.2874C46.7611 29.1493 46.7611 29.0113 46.7525 28.8732ZM30.1769 42.9962C27.3434 42.9962 24.711 42.1654 22.5063 40.7275L17.1488 42.4195L18.8874 37.3274C17.2179 35.066 16.2327 32.2891 16.2327 29.2886C16.2327 28.8427 16.2561 28.3967 16.303 27.9581C16.9861 21.0188 22.949 15.5798 30.1769 15.5798C37.4986 15.5798 43.5158 21.1569 44.0744 28.2184C44.1052 28.5727 44.1212 28.9257 44.1212 29.2874C44.1212 36.8497 37.8636 42.9962 30.1769 42.9962Z" fill="white"/>
<path fill-rule="evenodd" clip-rule="evenodd" d="M37.7786 32.5804C37.3668 32.38 35.3717 31.4112 34.9994 31.2805C34.627 31.1424 34.3545 31.0801 34.0832 31.4808C33.812 31.8803 33.0278 32.7807 32.7947 33.0422C32.5543 33.311 32.3212 33.3427 31.9094 33.1424C31.5062 32.942 30.1931 32.5266 28.6407 31.1571C27.4373 30.1028 26.6148 28.7955 26.3818 28.396C26.1488 27.9965 26.3584 27.7803 26.5606 27.5811C26.7468 27.3967 26.9638 27.112 27.1734 26.8811C27.2276 26.8115 27.2745 26.7504 27.3213 26.6881C27.4151 26.5414 27.4841 26.4034 27.5778 26.2104C27.7172 25.9416 27.6481 25.7107 27.547 25.5103C27.4459 25.31 26.6308 23.3406 26.2893 22.5416C25.9552 21.7414 25.6136 21.8794 25.3732 21.8794C25.1401 21.8794 24.8688 21.8416 24.5963 21.8416C24.3251 21.8416 23.8824 21.9417 23.5088 22.3412C23.1365 22.7407 22.0884 23.7108 22.0884 25.6802C22.0884 26.142 22.1735 26.6025 22.298 27.0411C22.7098 28.4485 23.5952 29.6104 23.7493 29.8107C23.9515 30.0722 26.5593 34.2419 30.69 35.8497C34.828 37.4416 34.828 36.9113 35.574 36.8417C36.3187 36.7806 37.9808 35.8802 38.315 34.9419C38.6565 34.011 38.6565 33.2108 38.5554 33.0422C38.4531 32.8797 38.1818 32.7795 37.7786 32.5804Z" fill="white"/>
</svg>
