<svg width="59" height="59" viewBox="0 0 59 59" fill="none" xmlns="http://www.w3.org/2000/svg">
<circle cx="29.5" cy="29.5" r="29.5" fill="#2E4750"/>
<path d="M15.3398 17.1487V40.67C15.3398 41.6652 16.154 42.4794 17.1492 42.4794H40.6705C41.6656 42.4794 42.4798 41.6652 42.4798 40.67V17.1487C42.4798 16.1536 41.6656 15.3394 40.6705 15.3394H17.1492C16.154 15.3394 15.3398 16.1536 15.3398 17.1487ZM23.0747 37.956H19.8632V25.4716H23.0747V37.956ZM21.4916 22.9838C20.5869 22.9838 19.8632 22.3053 19.8632 21.4459C19.8632 20.5864 20.5869 19.9079 21.4916 19.9079C22.3962 19.9079 23.12 20.5864 23.12 21.4459C23.0747 22.3053 22.351 22.9838 21.4916 22.9838ZM37.9565 37.956H34.7449V31.7138C34.7449 30.4021 34.6997 29.5426 34.564 29.1355C34.4283 28.7284 34.2021 28.457 33.9307 28.2309C33.6141 28.0047 33.2522 27.9142 32.8451 27.9142C32.3023 27.9142 31.8048 28.0499 31.3977 28.3666C30.9453 28.6832 30.6739 29.0903 30.493 29.5879C30.3121 30.0854 30.2668 31.0353 30.2668 32.3923V37.956H26.3768V25.4716H29.5883V27.3262C30.6739 25.924 32.0762 25.2002 33.7498 25.2002C34.4735 25.2002 35.152 25.3359 35.7853 25.6073C36.3733 25.8787 36.8709 26.1954 37.1875 26.6025C37.5042 27.0096 37.7303 27.4619 37.8208 28.0047C37.9565 28.5023 38.0017 29.2712 38.0017 30.2211V37.956H37.9565Z" fill="white"/>
</svg>
