<svg width="20" height="20" viewBox="0 0 20 20" fill="none" xmlns="http://www.w3.org/2000/svg">
<path d="M1.74958e-05 12.3048C-0.000743237 12.2036 0.0244762 12.1032 0.0742305 12.0095C0.123985 11.9158 0.197297 11.8306 0.289959 11.7587C0.382903 11.6867 0.49348 11.6294 0.615314 11.5904C0.737149 11.5514 0.867827 11.5312 0.999812 11.5312C1.1318 11.5312 1.26248 11.5514 1.38431 11.5904C1.50614 11.6294 1.61672 11.6867 1.70967 11.7587L9.99796 18.1419L18.2863 11.7587C18.4745 11.6139 18.7299 11.5326 18.9961 11.5326C19.2624 11.5326 19.5177 11.6139 19.706 11.7587C19.8942 11.9036 20 12.1 20 12.3048C20 12.5096 19.8942 12.706 19.706 12.8508L10.7078 19.7723C10.6149 19.8444 10.5043 19.9016 10.3825 19.9407C10.2606 19.9797 10.1299 19.9998 9.99796 19.9998C9.86598 19.9998 9.7353 19.9797 9.61347 19.9407C9.49163 19.9016 9.38105 19.8444 9.28811 19.7723L0.289959 12.8508C0.197296 12.7789 0.123985 12.6937 0.0742305 12.6C0.0244761 12.5063 -0.000743245 12.406 1.74958e-05 12.3048Z" fill="#FFAF1E"/>
<path d="M8.99846 19.2265L8.99846 0.769059C8.99846 0.565092 9.10379 0.369479 9.29129 0.225252C9.47879 0.0810256 9.73309 -5.5293e-08 9.99825 -4.37024e-08C10.2634 -3.21118e-08 10.5177 0.0810256 10.7052 0.225252C10.8927 0.369479 10.998 0.565092 10.998 0.769059L10.998 19.2265C10.998 19.4304 10.8927 19.6261 10.7052 19.7703C10.5177 19.9145 10.2634 19.9955 9.99825 19.9955C9.73309 19.9955 9.47879 19.9145 9.29129 19.7703C9.10379 19.6261 8.99846 19.4304 8.99846 19.2265Z" fill="#FFAF1E"/>
</svg>
