<svg width="16" height="14" viewBox="0 0 16 14" fill="none" xmlns="http://www.w3.org/2000/svg">
<path d="M9.84391 14C9.76294 14.0005 9.68267 13.9829 9.60771 13.948C9.53275 13.9132 9.46458 13.8619 9.40709 13.797C9.34942 13.732 9.30365 13.6546 9.27241 13.5693C9.24118 13.484 9.2251 13.3925 9.2251 13.3001C9.2251 13.2077 9.24118 13.1163 9.27241 13.031C9.30365 12.9457 9.34942 12.8683 9.40709 12.8032L14.5136 7.00143L9.40709 1.19962C9.29123 1.06783 9.22615 0.889093 9.22615 0.70272C9.22615 0.516347 9.29123 0.337607 9.40709 0.205822C9.52294 0.0740364 9.68007 0 9.84391 0C10.0078 0 10.1649 0.0740364 10.2807 0.205822L15.818 6.50453C15.8756 6.56959 15.9214 6.64699 15.9526 6.73228C15.9839 6.81756 16 6.90904 16 7.00143C16 7.09381 15.9839 7.18529 15.9526 7.27057C15.9214 7.35586 15.8756 7.43326 15.818 7.49832L10.2807 13.797C10.2232 13.8619 10.1551 13.9132 10.0801 13.948C10.0052 13.9829 9.92488 14.0005 9.84391 14Z" fill="#2E4750"/>
<path d="M15.3812 7.70147H0.615247C0.452074 7.70147 0.295583 7.62774 0.180202 7.49649C0.0648205 7.36524 0 7.18723 0 7.00161C0 6.816 0.0648205 6.63799 0.180202 6.50674C0.295583 6.37549 0.452074 6.30176 0.615247 6.30176H15.3812C15.5444 6.30176 15.7008 6.37549 15.8162 6.50674C15.9316 6.63799 15.9964 6.816 15.9964 7.00161C15.9964 7.18723 15.9316 7.36524 15.8162 7.49649C15.7008 7.62774 15.5444 7.70147 15.3812 7.70147Z" fill="#2E4750"/>
</svg>
