<svg width="63" height="63" viewBox="0 0 63 63" fill="none" xmlns="http://www.w3.org/2000/svg">
<path d="M31.5 0C14.1023 0 0 14.1023 0 31.5C0 48.8977 14.1023 63 31.5 63C48.8977 63 63 48.8977 63 31.5C63 14.1023 48.8977 0 31.5 0ZM31.5 58.0781C16.8209 58.0781 4.92188 46.1791 4.92188 31.5C4.92188 16.8209 16.8209 4.92188 31.5 4.92188C46.1791 4.92188 58.0781 16.8209 58.0781 31.5C58.0781 46.1791 46.1791 58.0781 31.5 58.0781Z" fill="#FFAF1E"/>
<path d="M43.5169 29.2702L24.5463 18.2459C22.4737 17.0193 20.4873 18.0074 20.4873 20.4416V42.5612C20.4873 44.9914 22.4737 45.9815 24.5463 44.7529L43.367 33.7306C45.4471 32.504 45.5953 30.4968 43.5169 29.2702Z" fill="#FFAF1E"/>
</svg>
