<svg width="36" height="36" viewBox="0 0 36 36" fill="none" xmlns="http://www.w3.org/2000/svg">
<circle cx="17.999" cy="18" r="18" fill="white"/>
<path fill-rule="evenodd" clip-rule="evenodd" d="M28.5269 17.6175C28.3899 12.2383 23.9172 7.91992 18.413 7.91992C12.975 7.91992 8.54062 12.1399 8.30363 17.4341C8.29912 17.5795 8.29385 17.7248 8.29385 17.8709C8.29385 19.7532 8.82426 21.5087 9.74363 23.0108L7.91992 28.3475L13.5242 26.5823C14.974 27.371 16.6412 27.8212 18.413 27.8212C24.003 27.8212 28.5321 23.3664 28.5321 17.8702C28.5321 17.786 28.5321 17.7017 28.5269 17.6175ZM18.413 26.2349C16.6841 26.2349 15.0778 25.728 13.7326 24.8506L10.4636 25.883L11.5245 22.776C10.5058 21.3962 9.90463 19.7018 9.90463 17.8709C9.90463 17.5988 9.91893 17.3267 9.94752 17.0591C10.3643 12.825 14.0027 9.50623 18.413 9.50623C22.8805 9.50623 26.552 12.9092 26.8928 17.2179C26.9116 17.4341 26.9214 17.6495 26.9214 17.8702C26.9214 22.4845 23.1031 26.2349 18.413 26.2349Z" fill="#FFAF1E"/>
<path fill-rule="evenodd" clip-rule="evenodd" d="M23.0512 19.8799C22.7999 19.7577 21.5826 19.1665 21.3554 19.0867C21.1282 19.0025 20.9619 18.9645 20.7964 19.209C20.6309 19.4527 20.1524 20.0022 20.0102 20.1617C19.8635 20.3257 19.7213 20.3451 19.47 20.2228C19.224 20.1006 18.4228 19.8471 17.4756 19.0115C16.7413 18.3681 16.2394 17.5705 16.0973 17.3267C15.9551 17.083 16.0829 16.951 16.2063 16.8295C16.3199 16.717 16.4524 16.5433 16.5803 16.4024C16.6134 16.3599 16.6419 16.3226 16.6705 16.2846C16.7277 16.1951 16.7699 16.1109 16.827 15.9931C16.912 15.8291 16.8699 15.6882 16.8082 15.566C16.7465 15.4437 16.2492 14.2421 16.0408 13.7545C15.8369 13.2663 15.6285 13.3505 15.4818 13.3505C15.3396 13.3505 15.1741 13.3274 15.0078 13.3274C14.8423 13.3274 14.5722 13.3885 14.3443 13.6323C14.117 13.876 13.4775 14.4679 13.4775 15.6696C13.4775 15.9514 13.5295 16.2324 13.6054 16.5C13.8567 17.3588 14.3969 18.0677 14.491 18.19C14.6144 18.3495 16.2056 20.8937 18.726 21.8747C21.2509 22.8461 21.2509 22.5225 21.706 22.48C22.1605 22.4427 23.1746 21.8934 23.3785 21.3209C23.5869 20.7528 23.5869 20.2646 23.5252 20.1617C23.4628 20.0625 23.2973 20.0014 23.0512 19.8799Z" fill="#FFAF1E"/>
</svg>
